<svg width="1440" height="294" viewBox="0 0 1440 294" fill="none" xmlns="http://www.w3.org/2000/svg">
<path d="M243.396 1.55194C243.396 2.4061 242.988 2.94125 242.49 2.74121C241.992 2.54117 240.962 3.3443 240.202 4.52594C239.401 5.77249 238.164 6.67444 237.257 6.67444C236.022 6.67444 235.922 6.85294 236.781 7.52573C237.617 8.17966 237.589 8.43811 236.662 8.64072C235.713 8.84821 235.755 9.14084 236.857 10.0122C237.925 10.8562 237.98 11.1806 237.09 11.3751C236.448 11.5155 235.923 11.8969 235.923 12.2225C235.923 12.5482 236.338 12.6478 236.846 12.4439C237.376 12.2313 237.532 12.4749 237.213 13.0149C236.907 13.5329 237.137 13.9567 237.724 13.9567C238.501 13.9567 238.52 14.286 237.791 15.1704C236.988 16.1453 237.081 16.3842 238.262 16.3842C239.451 16.3842 239.508 16.5402 238.563 17.1977C237.354 18.0387 235.005 17.2867 235.312 16.1566C235.391 15.8645 234.963 15.5076 234.361 15.3633C233.642 15.1909 233.452 15.5609 233.808 16.4444C234.105 17.1832 233.967 17.6426 233.501 17.4653C233.035 17.288 231.813 17.3438 230.785 17.5893C229.304 17.9433 229.739 18.127 232.887 18.477C235.362 18.7521 236.857 19.2408 236.857 19.7752C236.857 20.2465 237.674 20.6321 238.672 20.6321C239.671 20.6321 241.062 21.1655 241.765 21.8173C243.025 22.986 247.783 24.5808 249.326 24.3514C249.761 24.2866 252.494 24.6231 255.397 25.0991C258.301 25.5751 263.305 26.1571 266.517 26.3924C269.729 26.6277 272.591 27.0664 272.877 27.3673C273.164 27.6682 274.319 27.9205 275.445 27.928C276.57 27.9357 280.013 28.7487 283.096 29.735C286.178 30.7214 289.411 31.5345 290.28 31.542C291.149 31.5497 292.12 31.8286 292.437 32.1624C292.755 32.4962 292.54 32.7693 291.96 32.7693C290.666 32.7693 291.132 35.4834 292.437 35.5424C292.951 35.5656 295.214 35.9273 297.467 36.3463C299.719 36.7652 302.588 36.9407 303.842 36.7363C305.095 36.5318 307.456 36.6321 309.087 36.959C310.719 37.2859 314.399 37.8516 317.266 38.216C325.134 39.2163 329.335 40.0518 329.335 40.6163C329.335 41.2013 281.415 40.7931 269.551 40.107C263.3 39.7456 260.915 39.8444 258.342 40.5714C256.543 41.0794 254.862 41.5345 254.605 41.5827C254.348 41.631 252.91 42 251.408 42.4029C249.907 42.8058 248.015 42.9677 247.205 42.7626C246.394 42.5576 233.961 42.2918 219.576 42.172C205.19 42.0522 191.529 41.6822 189.217 41.3498C186.905 41.0175 179.976 40.4285 173.82 40.041C167.664 39.6535 161.823 39.0568 160.84 38.715C159.857 38.3732 156.999 38.2217 154.49 38.3784C151.981 38.535 149.701 38.425 149.424 38.1338C149.147 37.8426 148.529 37.7615 148.051 37.9535C147.572 38.1455 147.181 38.0135 147.181 37.66C147.181 37.3065 146.866 37.0715 146.48 37.1377C144.927 37.4048 136.906 36.3008 136.906 35.8197C136.906 35.2274 129.849 34.2428 127.181 34.4629C126.2 34.5438 124.607 34.0593 123.642 33.3862C122.677 32.7131 121.168 32.1302 120.289 32.0907C119.41 32.0514 116.168 31.9602 113.086 31.8882C110.003 31.8163 105.799 31.442 103.744 31.0567C101.689 30.6714 98.4198 30.2025 96.4789 30.0149C94.538 29.8272 93.178 29.4341 93.4566 29.1412C94.3261 28.2272 92.2503 27.9878 76.0209 27.1303C75.1585 27.0848 74.528 26.7888 74.6197 26.4727C74.7115 26.1566 73.9458 25.7372 72.9183 25.5407C71.8907 25.3443 69.9888 24.7146 68.6916 24.1414C66.9948 23.3915 63.4571 22.9896 56.0809 22.7087C50.4422 22.494 44.8571 22.3469 43.6695 22.3818C42.4819 22.4167 40.2193 22.0116 38.6414 21.4815C37.0119 20.9341 35.5234 20.7581 35.1959 21.0743C34.3918 21.8506 31.1031 22.5962 31.8235 21.8389C32.5828 21.0408 31.6738 21.0817 29.1867 21.9575C24.1667 23.7252 0.401825 22.3816 -2.07736 20.1898C-2.84491 19.5113 -2.92906 19.0536 -2.31091 18.9197C-1.77936 18.8046 -1.34447 18.4687 -1.34447 18.1732C-1.34447 17.8777 -1.93246 17.7825 -2.65114 17.9617C-3.36983 18.1409 -4.23534 17.9958 -4.57452 17.6393C-5.4803 16.6871 0.117828 16.8252 3.13901 17.8296C4.52637 18.2907 7.55307 18.8691 9.86501 19.1148C12.177 19.3605 14.8042 19.6502 15.7033 19.7586C16.6024 19.8669 17.338 19.5979 17.338 19.1607C17.338 18.5984 18.4997 18.4249 21.308 18.5678C24.3768 18.7239 24.9025 18.6284 23.6237 18.1465C22.7138 17.8037 22.1797 17.3022 22.4367 17.032C22.9912 16.4491 17.7686 15.863 7.65758 15.3733C1.98038 15.0984 0.127533 15.2072 -0.501724 15.8526C-1.09221 16.4582 -1.31978 16.4792 -1.33014 15.929C-1.35129 14.8117 -6.96602 14.9922 -8.97742 16.1747C-9.91698 16.7271 -10.6857 16.9207 -10.6857 16.605C-10.6857 16.2567 -13.7178 16.195 -18.3922 16.4481C-22.6308 16.6775 -29.2514 17.0157 -33.1046 17.1996C-36.9579 17.3835 -41.4913 17.8514 -43.1789 18.2394C-44.8665 18.6275 -47.2936 18.815 -48.5724 18.6562C-49.8513 18.4974 -51.1626 18.6463 -51.4866 18.9867C-51.8488 19.3674 -51.6046 19.4168 -50.853 19.115C-50.0923 18.8096 -49.8569 18.8623 -50.2301 19.2547C-50.9336 19.9941 -55.3887 20.6639 -60.6613 20.8229C-63.7715 20.9166 -64.4147 21.1541 -64.4992 22.2395C-64.5899 23.405 -63.9456 23.5927 -58.4274 24.0082C-55.0321 24.2639 -51.2032 24.414 -49.9188 24.3418L-47.5835 24.2105L-50.0621 25.0858C-54.3602 26.6035 -58.5512 27.2439 -66.733 27.6333C-71.1001 27.8411 -77.4054 28.4571 -80.7449 29.0022C-88.4257 30.256 -115.077 30.3521 -116.239 29.1302C-116.639 28.7098 -117.461 28.5643 -118.066 28.8069C-119.626 29.4336 -136.816 29.6445 -136.232 29.0299C-135.685 28.455 -135.824 28.4452 -148.044 28.2043C-156.669 28.0342 -160.309 27.8269 -173.223 26.7702C-179.112 26.2884 -182.554 26.5644 -185.92 27.788C-187.329 28.3004 -187.026 28.5919 -183.631 29.9839C-180.893 31.1067 -177.549 31.7671 -172.5 32.1817C-163.885 32.8893 -155.664 33.7806 -149.742 34.6494C-146.199 35.1691 -145.492 35.4904 -145.864 36.4125C-146.13 37.0744 -146.858 37.4053 -147.627 37.2137C-148.347 37.0343 -148.936 37.1897 -148.936 37.5592C-148.936 37.9286 -148.2 38.2351 -147.301 38.2402C-145.904 38.2479 -145.87 38.335 -147.068 38.8378C-147.954 39.2099 -148.05 39.4295 -147.33 39.4354C-146.703 39.4409 -146.434 39.8544 -146.732 40.3583C-147.107 40.9941 -146.175 41.5883 -143.667 42.3127L-140.062 43.3534L-149.189 43.7193C-154.208 43.9205 -160.829 44.0575 -163.901 44.0237C-166.973 43.9898 -169.487 43.9963 -169.487 44.0381C-169.487 44.0797 -168.646 44.7437 -167.618 45.5133C-166.591 46.283 -165.75 46.7281 -165.75 46.5025C-165.75 46.2768 -164.803 46.4948 -163.647 46.9876C-162.49 47.4801 -158.427 48.1971 -154.618 48.581C-150.809 48.9649 -146.028 49.6606 -143.993 50.127C-141.959 50.5934 -138.77 50.9848 -136.908 50.9966C-131.706 51.0298 -118.602 53.2434 -122.391 53.4489C-122.862 53.4744 -124.088 53.621 -125.116 53.7746C-126.143 53.9282 -127.497 54.127 -128.125 54.2163C-130.262 54.5207 -130.398 55.1113 -128.425 55.5181C-127.343 55.7414 -125.358 56.5856 -124.015 57.3941C-122.672 58.2027 -120.635 58.8642 -119.489 58.8642C-118.342 58.8642 -116.925 59.2395 -116.339 59.6983C-115.463 60.3839 -116.233 60.6036 -120.661 60.9313C-123.625 61.1506 -127.311 61.4623 -128.852 61.624C-132.519 62.0085 -147.11 61.9529 -148.112 61.5505C-149.465 61.0077 -160.145 60.7516 -160.145 61.2621C-160.145 61.5303 -159.515 62.0898 -158.744 62.5053C-157.973 62.9208 -157.343 63.5459 -157.343 63.8945C-157.343 64.243 -157.62 64.3485 -157.958 64.1289C-158.296 63.9092 -159.136 64.0338 -159.826 64.4054C-160.52 64.7797 -161.079 64.8225 -161.079 64.5013C-161.079 64.1823 -161.71 63.9213 -162.481 63.9213C-164.724 63.9213 -164.109 64.5712 -161.026 65.4577C-157.559 66.4547 -158.055 66.8728 -163.644 67.6636C-168.743 68.3849 -169.715 69.5154 -166.059 70.4726C-162.276 71.4633 -144.502 72.749 -134.342 72.767C-129.579 72.7758 -124.568 72.9642 -123.205 73.1864L-120.727 73.5905L-123.388 75.0049C-124.852 75.7829 -126.761 76.4292 -127.629 76.4412C-129.844 76.4717 -130.517 77.437 -129.329 78.8787C-128.075 80.401 -119.949 83.1384 -116.685 83.1384C-115.308 83.1384 -114.512 83.4003 -114.84 83.7453C-115.158 84.079 -116.189 84.3521 -117.131 84.3521C-118.713 84.3521 -120.473 85.8672 -120.126 86.9313C-119.774 88.013 -134.595 86.8032 -135.835 85.6491C-136.782 84.7676 -160.636 82.4641 -162.981 83.0276L-165.214 83.5643L-163.042 84.3195C-161.847 84.7348 -154.086 85.8094 -145.795 86.7073C-130.623 88.3504 -126.931 89.5104 -136.872 89.5104C-139.927 89.5104 -142.737 89.8571 -143.651 90.3466C-144.949 91.0418 -146.745 91.061 -154.313 90.4606C-168.229 89.3565 -176.316 88.5982 -178.213 88.2196C-179.47 87.9687 -179.847 88.1485 -179.614 88.8865C-179.274 89.9619 -176.384 91.2238 -171.853 92.275C-167.954 93.1798 -170.378 93.9775 -175.364 93.4303C-177.526 93.193 -181.186 92.8065 -183.498 92.5714L-187.702 92.1439L-184.199 94.3248C-182.272 95.5242 -180.696 96.6032 -180.696 96.7225C-180.696 96.8418 -183.303 97.131 -186.489 97.3651C-194.021 97.9188 -198.052 99.2906 -197.999 101.283C-197.972 102.334 -191.929 103.743 -186.306 104.011C-183.991 104.121 -178.734 104.645 -174.624 105.175C-170.514 105.705 -164.208 106.262 -160.611 106.412C-157.014 106.562 -151.55 106.973 -148.468 107.325C-129.327 109.508 -125.019 110.046 -124.194 110.353C-123.687 110.542 -125.158 110.995 -127.463 111.359C-129.783 111.726 -131.655 112.378 -131.655 112.819C-131.655 113.84 -122.24 116.059 -113.695 117.051C-109.538 117.533 -106.463 118.251 -105.456 118.974C-104.555 119.621 -101.428 120.437 -98.3338 120.832C-91.3144 121.729 -91.504 122.58 -99.131 124.411C-100.766 124.804 -101.915 125.441 -101.683 125.827C-101.156 126.705 -96.8264 128.046 -94.5154 128.046C-93.5599 128.046 -93.038 128.319 -93.3555 128.653C-93.6731 128.986 -97.0607 129.26 -100.884 129.26C-107.182 129.26 -109.712 129.88 -106.667 130.678C-103.946 131.391 -117.579 131.005 -124.312 130.178C-132.697 129.149 -137.259 129.58 -137.259 131.402C-137.259 132.241 -134.819 133.344 -128.09 135.545C-121.751 137.619 -119.301 138.704 -120.15 139.061C-121.764 139.738 -120.171 140.43 -113.906 141.774C-105.063 143.672 -98.0477 146.852 -98.9687 148.547C-99.5978 149.704 -96.1511 150.335 -81.9111 151.67C-74.8329 152.334 -67.7444 153.298 -66.1588 153.812C-64.5733 154.325 -61.2164 154.906 -58.6992 155.102C-51.7582 155.643 -38.4771 157.825 -36.3997 158.767C-35.3863 159.227 -33.2846 159.622 -31.7291 159.645C-30.1737 159.668 -28.0604 159.922 -27.0328 160.209C-25.5452 160.625 -25.9258 160.749 -28.9011 160.82C-36.8631 161.011 -41.0881 161.521 -42.1437 162.419C-42.8643 163.032 -43.9901 163.22 -45.4131 162.966C-47.2808 162.633 -47.3532 162.672 -45.932 163.251C-45.0236 163.621 -43.5523 163.845 -42.6625 163.75C-41.7727 163.655 -40.4791 163.807 -39.7879 164.089C-39.0444 164.392 -37.5904 164.273 -36.2273 163.799C-34.4318 163.175 -33.5335 163.157 -32.1562 163.715C-31.038 164.169 -30.1812 164.214 -29.8234 163.838C-29.5124 163.511 -26.8656 163.234 -23.9418 163.222C-21.018 163.21 -17.5748 162.81 -16.2904 162.333C-13.4922 161.294 -12.5539 161.218 -12.5539 162.03C-12.5539 162.363 -13.2093 162.637 -14.0103 162.637C-14.8112 162.637 -15.2363 162.879 -14.9549 163.174C-14.6734 163.47 -15.3234 163.862 -16.3993 164.045C-17.4752 164.227 -18.1729 164.736 -17.9496 165.176C-17.5377 165.986 -13.3535 166.461 -0.410355 167.166C11.283 167.804 14.5356 168.147 14.5356 168.742C14.5356 169.056 13.9051 169.312 13.1344 169.312C12.356 169.312 11.7333 169.851 11.7333 170.526C11.7333 171.416 12.356 171.739 14.0686 171.739C16.7556 171.739 17.2139 172.674 14.7334 173.095C13.8147 173.251 9.08565 173.233 4.22452 173.055C-9.93344 172.536 -15.5969 172.709 -18.5588 173.75C-20.0632 174.279 -21.5635 174.604 -21.8927 174.471C-22.2219 174.339 -22.3176 175 -22.1053 175.939C-21.6421 177.99 -22.9559 178.309 -32.5471 178.481C-38.2874 178.583 -38.733 178.675 -36.7381 179.347C-33.4561 180.452 -21.4173 182.038 -14.2383 182.311C-10.5693 182.451 -7.10358 182.949 -5.85684 183.516C-3.20316 184.724 -1.60403 184.739 0.19017 183.573C0.997238 183.049 3.24638 182.668 5.49466 182.676C12.418 182.699 38.2496 184.406 41.7568 185.072C45.0319 185.694 45.1312 185.794 44.4402 187.785C44.0049 189.039 44.1028 190.098 44.6894 190.479C45.3556 190.912 45.3269 191.365 44.5971 191.937C42.3655 193.683 45.2043 194.045 58.8365 193.751C69.4287 193.522 72.7329 193.647 74.8823 194.359C77.1563 195.113 87.4088 196.152 94.4031 196.338C95.4307 196.365 98.3732 196.632 100.942 196.93L105.613 197.473L101.409 197.914C99.0971 198.157 92.1613 198.216 85.996 198.046C79.8308 197.876 71.0034 197.773 66.3795 197.817C61.7556 197.862 52.7179 197.453 46.2958 196.91C33.5887 195.834 20.4843 195.081 14.843 195.103C12.8758 195.111 11.0022 194.879 10.6795 194.587C10.3568 194.296 8.78046 194.023 7.17653 193.98C5.57262 193.937 4.2603 193.677 4.2603 193.4C4.2603 193.124 3.31453 193.071 2.15855 193.282C0.513229 193.582 0.361053 193.527 1.45793 193.029C2.66582 192.479 2.63359 192.39 1.22443 192.382C0.325333 192.376 -0.410309 192.068 -0.410309 191.696C-0.410309 191.28 -1.29871 191.398 -2.71274 191.999C-5.26985 193.088 -6.39099 193.259 -5.61359 192.442C-5.33217 192.146 -5.93788 191.762 -6.95966 191.588C-8.02289 191.408 -8.81752 191.573 -8.81766 191.974C-8.81783 192.381 -10.2926 192.676 -12.3206 192.676C-14.547 192.676 -15.7436 192.41 -15.6047 191.947C-15.4541 191.444 -16.4608 191.306 -18.8335 191.504C-22.7222 191.827 -26.5586 193.241 -26.58 194.359C-26.5902 194.837 -26.9188 194.777 -27.4998 194.193C-28.2027 193.487 -28.4086 193.665 -28.4197 194.992C-28.4379 197.181 -26.8989 199.048 -25.0766 199.048C-24.2937 199.048 -23.9129 199.321 -24.2305 199.655C-24.548 199.989 -24.0474 200.283 -23.118 200.308C-20.0397 200.393 -18.0847 200.761 -16.0033 201.647C-14.1371 202.441 -9.75157 202.135 -9.75157 201.211C-9.75157 201.043 -10.3148 201.047 -11.0031 201.219C-11.6914 201.391 -12.8474 201.057 -13.5719 200.477C-14.7072 199.568 -14.7059 199.494 -13.5618 199.942C-12.5416 200.342 -12.3872 200.205 -12.8928 199.349C-13.2861 198.683 -13.0684 198.037 -12.351 197.741C-10.5638 197.004 -9.05902 197.143 -10.6846 197.895C-11.7389 198.382 -11.1977 198.462 -8.49814 198.218C-6.51387 198.038 -4.14728 198.203 -3.20276 198.586C-1.91008 199.111 -1.16264 199.1 -0.127136 198.542C0.975967 197.947 1.38106 198.013 1.96526 198.882C2.36369 199.474 2.62297 200.164 2.5414 200.414C2.45985 200.664 2.9886 200.869 3.71643 200.869C4.44427 200.869 5.20004 201.182 5.3959 201.563C5.59175 201.945 6.98521 202.343 8.49245 202.447C9.99968 202.552 11.7025 203.054 12.2766 203.564C12.8506 204.074 13.6609 204.291 14.0773 204.046C14.4937 203.801 14.5704 204.078 14.2478 204.662C13.5257 205.97 15.3123 206.092 16.0826 204.788C16.5722 203.959 16.8373 203.97 18.3886 204.882C20.0446 205.855 20.1422 205.848 20.1557 204.756C20.1676 203.788 20.3168 203.748 21.0755 204.511C22.4255 205.868 22.2328 206.163 19.7327 206.571C18.147 206.829 17.5006 207.33 17.6038 208.22C17.7683 209.637 21.0222 210.697 24.7713 210.554C28.2659 210.42 31.3509 211.201 31.3509 212.219C31.3509 212.875 32.2793 213.067 34.8539 212.945C38.6187 212.766 44.9525 213.449 47.231 214.28C48.3625 214.692 48.2726 214.799 46.7639 214.837C45.7364 214.863 42.7939 215.013 40.2251 215.169C32.2819 215.653 21.7162 215.638 17.9046 215.137C15.288 214.793 14.4493 214.851 14.9172 215.343C15.3191 215.765 15.0665 215.902 14.2563 215.7C13.4879 215.508 12.248 216.064 11.2622 217.041C10.0587 218.234 9.90042 218.779 10.7064 218.954C11.4633 219.117 11.2803 219.479 10.1491 220.056C8.61394 220.838 8.71291 220.886 11.2673 220.598C12.8085 220.424 13.5442 220.442 12.902 220.639C10.5362 221.364 11.8392 222.109 15.4706 222.109C17.8294 222.109 19.2123 221.83 19.2213 221.351C19.2315 220.793 19.4478 220.81 20.0387 221.415C20.5433 221.933 21.0602 222.009 21.4293 221.621C22.0564 220.962 23.2455 221.013 26.1651 221.825C27.1663 222.104 29.3671 222.35 31.0558 222.372C34.9274 222.423 36.1844 223.93 32.3554 223.93C30.841 223.93 29.4492 224.324 29.1446 224.84C28.7818 225.454 29.1899 225.75 30.3994 225.75C31.3853 225.75 32.5281 226.092 32.9389 226.509C34.0102 227.597 37.817 228.885 38.7971 228.492C39.2545 228.308 39.8927 228.435 40.2154 228.775C40.5381 229.114 41.9621 229.392 43.3798 229.392C44.7975 229.392 48.2407 229.835 51.0312 230.377C55.4358 231.233 55.8316 231.429 54.0322 231.868C52.8923 232.145 45.0925 232.336 36.6994 232.29C28.3063 232.245 20.89 232.429 20.2187 232.698C19.5236 232.977 18.723 232.899 18.359 232.516C17.6084 231.727 -11.4299 231.129 -12.1517 231.888C-12.4054 232.155 -13.2653 232.21 -14.0625 232.011C-15.0443 231.767 -15.1735 231.514 -14.463 231.229C-13.8859 230.997 -14.6914 230.808 -16.2529 230.808C-17.8144 230.808 -19.092 231.069 -19.092 231.388C-19.092 231.707 -19.7327 231.622 -20.5157 231.2C-21.2988 230.778 -22.2383 230.626 -22.6036 230.864C-22.9688 231.101 -22.223 231.812 -20.9463 232.443L-18.6249 233.591L-20.9602 233.299C-23.0066 233.044 -23.0644 233.079 -21.4273 233.584C-18.7332 234.416 -14.3058 234.33 -11.7104 233.396C-9.18086 232.485 -6.01425 232.785 -6.01425 233.935C-6.01425 234.465 -4.16975 234.703 0.0575409 234.719C3.86713 234.733 6.12933 234.493 6.12933 234.074C6.12933 233.708 6.65479 233.855 7.29698 234.402C8.14041 235.12 10.6695 235.505 16.4047 235.786C20.7717 236 26.998 236.561 30.241 237.031C33.4839 237.502 37.4772 237.914 39.1151 237.946C40.753 237.978 44.1948 238.377 46.7637 238.833C51.1434 239.61 50.6489 239.641 38.8236 239.33C31.8878 239.148 25.5824 238.995 24.8118 238.989C24.0411 238.984 14.3729 238.339 3.32697 237.557C-7.71904 236.774 -19.7617 236.051 -23.4344 235.949C-27.1072 235.847 -29.9198 235.559 -29.6846 235.308C-29.4495 235.058 -31.0684 234.852 -33.2822 234.851C-35.496 234.851 -41.0906 234.453 -45.7145 233.969C-53.6436 233.14 -72.2953 232.285 -69.7623 232.867C-69.1169 233.015 -68.8264 233.386 -69.1168 233.691C-69.4072 233.997 -68.4641 234.26 -67.0209 234.276C-65.5777 234.291 -62.9257 234.823 -61.1275 235.456C-59.3293 236.09 -57.0173 236.862 -55.9898 237.174C-52.6124 238.197 2.48114 244.118 15.4706 244.854C19.3238 245.072 30.4632 245.792 40.2248 246.453C49.9864 247.114 62.8705 247.92 68.8561 248.244C74.8418 248.568 81.7617 249.228 84.2337 249.711C87.481 250.346 88.907 250.402 89.3723 249.913C89.9623 249.293 99.79 249.463 111.685 250.299C113.483 250.425 119.158 250.699 124.296 250.908C133.515 251.282 147.56 252.541 155.422 253.697C157.642 254.024 159.852 254.133 160.332 253.94C160.813 253.747 167.322 254.191 174.795 254.926C185.853 256.014 188.782 256.125 190.521 255.52C192.27 254.912 194.51 255.014 202.848 256.082C216.727 257.859 234.838 260.169 243.864 261.313C247.974 261.834 253.945 262.648 257.133 263.122C260.321 263.595 264.315 263.981 266.007 263.979C267.7 263.979 270.976 264.37 273.288 264.85C277.185 265.66 285.162 266.56 306.45 268.589C317.386 269.631 319.589 269.871 330.737 271.24C335.875 271.871 344.282 272.838 349.419 273.389C354.557 273.94 360.022 274.526 361.563 274.692C372.47 275.863 374.547 275.841 376.716 274.533C377.887 273.827 378.844 272.939 378.844 272.561C378.844 272.182 379.16 271.904 379.545 271.943C379.93 271.983 381.206 271.983 382.38 271.943C384.165 271.883 384.362 271.686 383.581 270.738C382.437 269.349 383.352 268.601 385.064 269.524C386.99 270.562 386.551 269.628 384.335 267.972C383.173 267.104 380.838 266.325 378.69 266.089C375.553 265.745 375.195 265.555 376.2 264.769C377.707 263.589 376.434 263.516 436.293 268.221C440.403 268.544 447.759 268.94 452.64 269.1C457.521 269.26 466.348 269.678 472.257 270.03C478.165 270.381 485.941 270.776 489.538 270.909C493.134 271.041 497.739 271.432 499.771 271.778C501.802 272.124 509.862 272.423 517.682 272.444C525.501 272.464 532.456 272.603 533.137 272.752C534.818 273.119 556.708 273.864 561.916 273.731C564.219 273.672 566.747 273.247 567.532 272.785C569.293 271.75 573.776 271.646 594.627 272.158C604.211 272.393 613.013 272.928 615.903 273.451C619.674 274.133 625.93 274.32 642.526 274.246C654.457 274.192 674.307 274.355 686.638 274.606C711.625 275.117 710.29 275.123 736.146 274.393C752.887 273.921 762.545 273.902 777.248 274.31C779.816 274.381 781.183 274.565 780.283 274.717C779.384 274.87 778.649 275.28 778.649 275.629C778.649 276.048 781.271 276.143 786.355 275.91C790.594 275.716 803.31 275.28 814.613 274.941C825.915 274.603 840.418 274.046 846.84 273.704C872.641 272.328 882.481 271.843 895.881 271.288C929.394 269.898 947.061 269.344 965.473 269.106C973.95 268.996 984.459 268.721 988.826 268.493C993.193 268.266 999.709 268.104 1003.31 268.134C1006.9 268.164 1014.05 267.92 1019.19 267.592C1024.32 267.263 1040.96 266.875 1056.16 266.728C1071.36 266.581 1085.65 266.194 1087.92 265.869C1090.19 265.544 1095.35 265.129 1099.39 264.949C1103.42 264.768 1108.05 264.48 1109.66 264.308C1115.18 263.721 1123.81 263.322 1136.42 263.069C1147.52 262.847 1158.31 262.314 1174.25 261.199C1176.82 261.02 1180.39 260.797 1182.19 260.704C1183.99 260.61 1188.61 260.359 1192.47 260.145C1196.32 259.93 1202.83 259.588 1206.94 259.384C1211.05 259.18 1214.63 258.929 1214.88 258.826C1215.14 258.723 1217.74 258.474 1220.66 258.272C1223.59 258.07 1226.59 257.752 1227.34 257.564C1228.1 257.376 1232.43 257.142 1236.98 257.042C1249.46 256.769 1249.45 256.771 1249.45 255.79C1249.45 255.289 1249.89 254.88 1250.44 254.88C1250.98 254.88 1251.12 255.199 1250.75 255.589C1250.29 256.074 1250.59 256.17 1251.71 255.893C1252.6 255.669 1254.26 255.486 1255.4 255.486C1256.79 255.486 1257.5 255.092 1257.6 254.273C1257.77 252.822 1257.26 252.752 1255.38 253.969C1253.43 255.239 1251.24 255.144 1251.9 253.818C1252.22 253.164 1252.12 253.016 1251.64 253.434C1251.1 253.896 1248.47 253.983 1243.37 253.706C1234.61 253.23 1227.99 253.361 1215.82 254.252C1210.94 254.609 1204.63 255.048 1201.81 255.227C1198.98 255.407 1196.18 255.658 1195.58 255.785C1194.98 255.912 1194.24 255.602 1193.94 255.096C1193.54 254.415 1192.65 254.282 1190.52 254.586C1187.18 255.064 1185.03 255.245 1176.12 255.803C1172.52 256.027 1169.33 256.312 1169.02 256.435C1168.37 256.696 1155.87 256.739 1138.75 256.539C1127.89 256.412 1120.23 256.759 1114.52 257.638C1111.3 258.133 1088.78 258.347 1088.78 257.883C1088.78 257.644 1091.61 257.251 1095.08 257.01C1098.55 256.769 1102.23 256.464 1103.26 256.332C1110.46 255.408 1129.77 254.373 1145.29 254.078C1148.89 254.009 1152.28 253.769 1152.82 253.543C1153.72 253.167 1182.33 251.718 1183.86 251.97C1184.23 252.03 1187.68 251.888 1191.53 251.655C1197.49 251.294 1212.7 250.567 1216.52 250.462C1217.9 250.423 1218.06 249.64 1216.8 249.132C1215.89 248.767 1208.84 248.682 1202.47 248.96C1200.53 249.045 1198.59 249.474 1198.18 249.913C1197.61 250.507 1196.01 250.607 1191.9 250.301C1188.87 250.075 1186.11 249.781 1185.77 249.648C1185.42 249.515 1184.51 249.821 1183.73 250.327C1182.95 250.833 1182.09 251.014 1181.81 250.728C1181.29 250.173 1162.43 250.41 1156.97 251.039C1155.17 251.246 1152 251.472 1149.92 251.541C1147.85 251.61 1145.22 251.989 1144.09 252.384C1142.44 252.958 1142.02 252.939 1142.02 252.291C1142.02 251.814 1140.77 251.416 1138.99 251.322C1131.6 250.935 1121.26 250.971 1113.06 251.414C1107.17 251.732 1104.65 251.692 1105.56 251.295C1109.25 249.693 1102.34 248.903 1091.58 249.696C1082.04 250.399 1080.34 250.436 1076.21 250.029C1074.09 249.82 1071.11 249.864 1069.59 250.129C1065.59 250.825 1044.79 252.058 1035.53 252.148C1031.17 252.191 1024.86 252.412 1021.52 252.64C1018.18 252.869 1011.46 253.195 1006.57 253.367C1001.69 253.538 990.134 254.08 980.886 254.57C971.639 255.061 957.883 255.646 950.319 255.871C937.993 256.236 936.504 256.173 935.969 255.268C935.46 254.406 933.837 254.261 924.968 254.283C919.246 254.297 912.672 254.087 910.36 253.816L906.156 253.324L913.162 252.647C917.016 252.275 921.64 251.978 923.438 251.987C925.236 251.997 932.592 251.581 939.785 251.064C946.978 250.548 960.639 249.82 970.144 249.447C979.649 249.074 988.36 248.639 989.503 248.479C990.646 248.319 1000.1 247.923 1010.52 247.598C1029.24 247.014 1042.36 246.537 1052.35 246.078C1055.17 245.948 1064.87 245.566 1073.89 245.228C1082.91 244.889 1090.9 244.491 1091.64 244.343C1092.38 244.194 1093.82 243.866 1094.85 243.613C1095.88 243.361 1098.33 243.079 1100.31 242.986C1102.28 242.893 1104.39 242.385 1104.98 241.855C1105.84 241.091 1108.28 240.861 1116.8 240.736C1122.71 240.65 1127.96 240.411 1128.48 240.206C1128.99 240.001 1132.56 239.673 1136.42 239.477C1154.84 238.541 1173.25 237.78 1181.72 237.606C1186.86 237.5 1197.79 236.937 1206.01 236.354C1214.23 235.771 1224.74 235.204 1229.36 235.093C1261.37 234.326 1286.93 233.36 1300.36 232.411C1304.98 232.084 1313.08 231.641 1318.37 231.426C1323.65 231.211 1328.19 230.802 1328.46 230.517C1328.74 230.232 1327.57 229.976 1325.87 229.949C1324.17 229.922 1321.59 229.844 1320.14 229.775C1318.69 229.707 1317.32 229.843 1317.09 230.078C1316.87 230.313 1315.14 230.226 1313.24 229.886C1311.31 229.54 1307.08 229.443 1303.67 229.667C1300.31 229.887 1282.42 230.175 1263.93 230.305C1245.43 230.436 1223.36 230.719 1214.88 230.935C1199.77 231.319 1195.49 231.084 1205.4 230.414C1208.15 230.229 1210.61 229.945 1210.86 229.783C1211.52 229.35 1208.11 228.28 1205.27 228.033C1201.97 227.746 1200.93 226.977 1203.75 226.911C1204.99 226.882 1211.47 226.604 1218.15 226.293C1224.83 225.982 1237.97 225.566 1247.34 225.369C1262.76 225.045 1264.39 224.908 1264.39 223.947C1264.39 222.612 1268.15 222.296 1290.82 221.729C1299.96 221.5 1307.65 221.082 1307.92 220.801C1308.19 220.519 1310.25 220.289 1312.5 220.289C1320.17 220.289 1318.02 218.613 1308.6 217.248C1305.94 216.862 1302.36 216.597 1300.66 216.659C1289.28 217.068 1292.26 215.873 1305.03 214.909C1310.16 214.52 1317.31 214.07 1320.91 213.909C1324.5 213.747 1331.02 213.343 1335.39 213.01C1339.75 212.677 1348.58 212.225 1355 212.005C1362.91 211.734 1366.98 211.348 1367.61 210.809C1368.13 210.369 1371.46 209.838 1375.09 209.619C1378.68 209.402 1382.05 208.891 1382.56 208.483C1383.07 208.075 1386.56 207.558 1390.32 207.333C1394.07 207.107 1398.08 206.522 1399.23 206.032C1400.55 205.47 1404.59 205.042 1410.16 204.874C1422.16 204.511 1431.56 203.827 1432.08 203.279C1432.63 202.703 1424.45 201.881 1423.2 202.385C1422.68 202.592 1422.26 202.502 1422.26 202.186C1422.26 201.87 1423.73 201.432 1425.53 201.213C1429.08 200.78 1429.75 200.025 1427.16 199.374C1424.11 198.605 1428.38 197.387 1437.99 196.289C1446.05 195.366 1451.15 194.226 1447.43 194.175C1443.94 194.128 1449.33 193.058 1454.94 192.685C1458.28 192.463 1461.49 192.019 1462.09 191.697C1462.69 191.375 1465.83 190.833 1469.08 190.493C1478.11 189.549 1478.01 188.79 1468.8 188.32C1465.36 188.144 1462.22 187.623 1461.27 187.073C1459.94 186.301 1458.32 186.209 1452.39 186.568C1440.35 187.299 1437.97 187.157 1436.16 185.6C1435.27 184.838 1434.73 184.023 1434.95 183.79C1435.18 183.557 1438.19 183.174 1441.65 182.941C1445.11 182.707 1448.37 182.302 1448.88 182.04C1449.4 181.778 1451.81 181.37 1454.25 181.134C1460.95 180.486 1459.58 179.629 1451.84 179.629C1448.07 179.629 1444.67 179.424 1444.28 179.174C1443.89 178.924 1439.98 178.719 1435.58 178.719C1430.01 178.719 1427.45 178.488 1427.18 177.96C1426.9 177.44 1427.9 177.201 1430.36 177.198C1432.32 177.197 1435.41 176.944 1437.21 176.638C1439 176.332 1444.03 175.909 1448.38 175.698C1452.73 175.486 1456.76 175.058 1457.34 174.746C1457.92 174.434 1458.64 174.337 1458.94 174.532C1459.24 174.726 1460.46 174.658 1461.66 174.381C1463.33 173.992 1462.34 173.789 1457.29 173.49C1451.33 173.138 1444.54 172.252 1440.94 171.36C1438.66 170.793 1442.21 170.17 1452.85 169.269C1458.12 168.823 1462.43 168.296 1462.43 168.098C1462.43 167.9 1465.16 167.851 1468.5 167.989C1473.38 168.191 1474.57 168.066 1474.57 167.353C1474.57 166.253 1471.61 164.454 1469.83 164.467C1468.73 164.475 1468.74 164.578 1469.9 165.065C1471.09 165.565 1471.05 165.654 1469.64 165.662C1468.72 165.668 1467.72 165.248 1467.42 164.73C1466.94 163.927 1465.25 163.835 1456 164.105C1444.41 164.444 1441.56 164.042 1443.7 162.371C1447.27 159.571 1461.86 156.569 1471.89 156.569C1477.94 156.569 1481.11 155.833 1481.11 154.423C1481.11 153.718 1479.61 153.537 1473.87 153.549C1469.89 153.556 1464.95 153.851 1462.89 154.202C1460.84 154.554 1451.16 154.965 1441.38 155.116C1424.08 155.384 1423.59 155.358 1423.45 154.171C1423.32 153.004 1424.46 152.164 1426.46 151.953C1426.98 151.899 1431.01 151.413 1435.42 150.873C1449.86 149.106 1462.68 148.029 1475.8 147.482C1487.95 146.975 1492.1 146.28 1490.84 144.96C1490.55 144.658 1489.92 144.573 1489.43 144.77C1488.94 144.967 1488.65 144.767 1488.79 144.325C1488.93 143.88 1488.32 143.558 1487.42 143.604C1486.53 143.65 1486 143.475 1486.25 143.216C1486.49 142.956 1485.27 142.57 1483.53 142.357C1479.76 141.898 1478.86 140.804 1480.79 139.013C1481.82 138.059 1481.93 137.49 1481.2 136.916C1479.99 135.973 1480.78 135.329 1483.13 135.329C1484.07 135.329 1484.84 135.214 1484.84 135.075C1484.84 134.935 1485.12 134.349 1485.46 133.771C1486.03 132.807 1485.41 132.754 1477.76 133.124C1473.18 133.345 1467.86 133.689 1465.93 133.887C1463.14 134.174 1462.43 134.054 1462.43 133.301C1462.43 132.781 1461.75 132.108 1460.92 131.807C1458.78 131.03 1460.07 127.533 1462.75 126.83C1464.66 126.328 1464.67 126.299 1462.89 126.222C1461.02 126.14 1461.02 126.14 1462.89 125.619C1464.72 125.11 1462.17 124.893 1452.62 124.741C1448.63 124.678 1445.61 123.861 1445.61 122.847C1445.61 122.305 1444.64 121.975 1443.04 121.969C1441.63 121.964 1439.52 121.795 1438.35 121.592C1436.36 121.245 1436.33 121.171 1437.88 120.405C1438.79 119.956 1440.69 119.58 1442.1 119.57C1443.5 119.559 1447.42 118.594 1450.81 117.426C1454.23 116.248 1458.34 115.302 1460.03 115.302C1465.69 115.302 1474.52 114.53 1474.09 114.072C1473.85 113.823 1474.37 113.656 1475.24 113.702C1476.12 113.748 1476.98 113.315 1477.17 112.739C1477.59 111.404 1472.08 109.102 1469.23 109.427C1468.09 109.558 1467.01 109.366 1466.82 109.002C1466.38 108.144 1455.48 107.901 1451.12 108.653C1449.27 108.972 1439.7 109.307 1429.87 109.397C1413.24 109.55 1408.33 109.24 1414.55 108.43C1415.96 108.245 1419.01 107.817 1421.32 107.477C1423.64 107.137 1427.31 106.847 1429.5 106.833C1431.68 106.818 1433.47 106.533 1433.47 106.199C1433.47 105.866 1434.13 105.593 1434.93 105.593C1435.73 105.593 1437.26 105.293 1438.31 104.926C1440.21 104.266 1440.2 104.251 1438.02 103.542C1434.18 102.301 1435.37 101.13 1441.81 99.8001C1445.12 99.1176 1448.02 98.1618 1448.26 97.6761C1448.5 97.1905 1449.07 96.6348 1449.52 96.4412C1450.95 95.8321 1449.24 93.9598 1447.62 94.3629C1446.8 94.5666 1446.39 94.5658 1446.71 94.3607C1447.02 94.1559 1446.22 93.3001 1444.93 92.4588C1443.22 91.3521 1441.47 90.9013 1438.57 90.8286C1436.38 90.7733 1434.75 90.5495 1434.95 90.3312C1435.16 90.1129 1431.31 90.0681 1426.39 90.2317C1419.24 90.4694 1417.14 90.3447 1415.89 89.6091C1414.15 88.5876 1404.97 88.1665 1400.19 88.8884C1398.36 89.1641 1397.03 89.0791 1396.63 88.6614C1396.28 88.294 1395 87.9934 1393.79 87.9934C1390.98 87.9934 1388.63 87.4113 1388.63 86.7148C1388.63 86.4167 1389.24 86.1729 1389.98 86.1729C1390.73 86.1729 1391.7 85.7588 1392.13 85.2527C1392.62 84.6818 1396.28 83.909 1401.75 83.2167C1412.55 81.8525 1420.49 79.7669 1419.74 78.4951C1419.45 78.0067 1418.62 77.7562 1417.89 77.9384C1417.15 78.1207 1416.79 78.0229 1417.08 77.7213C1417.37 77.4196 1416.5 76.3219 1415.15 75.282C1413.35 73.8903 1412.21 73.4935 1410.82 73.7785C1409.78 73.9931 1409.18 73.9193 1409.47 73.6131C1409.76 73.3091 1408.54 73.0335 1406.75 73.0005C1404.96 72.9677 1400.55 72.471 1396.94 71.8969L1390.39 70.853L1392.47 69.4101C1393.62 68.6165 1394.95 67.9671 1395.42 67.9671C1395.9 67.9671 1397.73 67.5224 1399.49 66.9789C1402.57 66.0311 1402.64 65.9328 1401.28 64.5831C1400.39 63.6962 1400.21 63.0361 1400.8 62.7986C1401.32 62.5912 1401.47 62.1382 1401.14 61.7919C1400.75 61.3856 1400.25 61.4543 1399.72 61.9855C1399.19 62.5198 1398.66 62.5914 1398.2 62.1896C1397.82 61.8491 1396.24 61.1754 1394.7 60.6924L1391.9 59.8144L1394.86 59.6082C1398.06 59.3849 1399.77 57.8276 1397.45 57.2492C1396.66 57.0537 1395.79 57.0447 1395.51 57.2292C1395.22 57.4136 1393.59 57.054 1391.88 56.43C1390.17 55.8059 1387.17 55.1006 1385.22 54.8627C1383.27 54.6247 1381.1 54.0623 1380.41 53.6129C1378.77 52.5483 1378.13 52.5718 1369.45 54.014C1361.66 55.3082 1359.47 55.1876 1356.27 53.2898C1354.47 52.2192 1353.74 52.1665 1348.86 52.7527C1342.46 53.5215 1330.4 53.62 1331.08 52.8978C1331.35 52.6202 1334.63 52.0533 1338.38 51.6381C1347.93 50.5804 1349 50.3531 1347.43 49.7236C1344.72 48.6323 1356.89 46.0561 1368.78 45.205C1371.99 44.9752 1374.83 44.5731 1375.07 44.3114C1375.32 44.0496 1374.65 43.1074 1373.57 42.2175C1371.76 40.7229 1371.72 40.5171 1373.11 39.5193C1373.94 38.9251 1374.62 38.2897 1374.62 38.1071C1374.62 37.3571 1358.8 38.4363 1353.6 39.5411C1346.12 41.1297 1330.98 42.2892 1329.58 41.3803C1328.84 40.8996 1328.84 40.4868 1329.56 39.9205C1330.54 39.1558 1332.03 38.8288 1344.49 36.6602C1348.38 35.9839 1350.33 35.338 1350.33 34.7298C1350.33 33.9611 1349.23 33.8806 1343.4 34.2238C1338.96 34.4852 1336.25 34.4062 1335.87 34.0041C1335.54 33.6588 1335.79 33.3763 1336.42 33.3763C1337.05 33.3763 1337.35 33.235 1337.08 33.0622C1336.45 32.6554 1323.23 34.459 1321.91 35.1306C1320.88 35.6586 1307.23 37.0236 1304.33 36.8901C1303.43 36.8489 1302.69 36.4734 1302.69 36.0557C1302.69 35.6379 1302.47 34.928 1302.21 34.4781C1301.75 33.701 1313.16 32.1297 1332.81 30.2625C1335.77 29.9819 1339.71 29.3389 1341.57 28.8335C1343.43 28.3281 1346.27 27.9131 1347.88 27.9112C1352.11 27.9057 1358.18 26.7044 1357.2 26.0667C1356.75 25.7713 1351.06 25.4518 1344.56 25.3567C1338.06 25.2616 1332.81 25.1374 1332.9 25.0808C1332.98 25.0242 1335.13 24.4477 1337.67 23.7999C1342.09 22.6716 1342.2 22.591 1340.18 21.8885C1338.6 21.3384 1336.9 21.3173 1333.41 21.8041C1327.73 22.5962 1326.98 22.6067 1326.98 21.8944C1326.98 21.5871 1328.23 21.1565 1329.77 20.9374C1334.88 20.2088 1333.77 19.4187 1327.64 19.4187C1324.08 19.4187 1320.47 19.0338 1318.72 18.4662C1316.95 17.8918 1314.96 17.6828 1313.71 17.9398C1311.05 18.4893 1267.19 18.6989 1267.7 18.1597C1268.79 17.0175 1256.54 17.0233 1246.08 18.1707C1224.9 20.4929 1206.89 21.8129 1195.27 21.8937C1188.84 21.9383 1179.18 22.3501 1173.78 22.8087C1168.39 23.2674 1158.78 23.9242 1152.42 24.2683C1146.07 24.6124 1140.61 24.999 1140.28 25.1274C1139.95 25.2558 1136.53 25.5351 1132.68 25.7482C1128.83 25.9613 1124.2 26.2511 1122.4 26.3923C1118.66 26.6862 1101.62 27.3036 1089.24 27.5935C1080.29 27.8033 1066.69 28.3615 1057.48 28.8969C1054.4 29.0761 1042.42 29.3393 1030.86 29.4816C1019.3 29.624 1005.64 29.9643 1000.5 30.2378C995.364 30.5114 981.155 30.7081 968.926 30.6748C950.432 30.6247 946.542 30.464 945.807 29.72C945.056 28.9612 944.794 28.9539 944.082 29.6723C943.523 30.2364 942.321 30.3993 940.482 30.1604C938.96 29.9626 937.262 30.0997 936.699 30.4659C936.136 30.8312 934.288 31.1877 932.592 31.2581C930.896 31.3286 928.668 31.5479 927.64 31.7455C922.042 32.8224 916.21 33.1356 913.86 32.4854C911.974 31.9634 907.265 32.58 907.916 33.2638C908.156 33.5157 903.654 33.7952 897.912 33.8849C882.451 34.1265 880.848 34.2369 879.098 35.1803C877.676 35.9472 877.534 35.912 877.815 34.8616C878.03 34.061 877.68 33.7499 876.731 33.8961C875.96 34.0146 874.384 34.1171 873.228 34.1237C872.072 34.1302 871.126 34.3454 871.126 34.6017C871.126 34.8581 870.448 35.2366 869.621 35.443C868.528 35.7155 868.269 35.5584 868.676 34.8696C869.062 34.2159 868.876 34.0694 868.079 34.3985C867.443 34.6612 862.929 34.9619 858.048 35.0667C847.784 35.287 849.309 35.2842 801.067 35.1737C780.773 35.1272 761.57 35.2864 758.393 35.5274C755.217 35.7685 751.911 35.7895 751.047 35.5742C749.457 35.1779 718.942 34.3954 709.566 34.5105C702.234 34.6005 693.919 31.8002 698.544 30.7986C699.234 30.6493 698.757 30.2199 697.376 29.7469C696.094 29.3073 694.81 28.717 694.525 28.4353C693.494 27.4171 685.562 26.8489 683.31 27.632C681.891 28.1255 678.129 28.3027 672.215 28.1548C667.293 28.0318 651.129 27.787 636.293 27.6109C621.458 27.4348 608.299 27.1243 607.051 26.9209C605.804 26.7175 600.501 26.5092 595.267 26.4581C590.033 26.407 584.911 26.0583 583.883 25.6831C582.044 25.0119 573.382 23.91 571.931 24.163C570.144 24.4747 566.825 24.3963 563.799 23.9709C562.001 23.7181 559.689 23.5571 558.662 23.613C557.634 23.6689 555.953 23.7628 554.925 23.8217C553.898 23.8805 549.064 23.6081 544.183 23.2161C539.302 22.8242 533.491 22.5091 531.27 22.5161C529.049 22.5226 526.737 22.2703 526.133 21.9545C525.528 21.6386 523.667 21.1905 521.997 20.9585C519.513 20.6133 518.962 20.7232 518.962 21.5638C518.962 22.4736 518.189 22.5417 512.189 22.1613C508.464 21.925 498.691 21.6689 490.471 21.5919C482.25 21.515 473.261 21.1313 470.493 20.7392C467.726 20.3471 465.257 20.0264 465.008 20.0264C464.758 20.0264 465.077 19.6167 465.717 19.1161C466.356 18.6154 468.299 18.2058 470.034 18.2058C471.77 18.2058 473.19 18.0916 473.19 17.952C473.19 17.8124 473.445 17.2662 473.756 16.7383C474.534 15.4218 471.904 15.4865 469.828 16.835C468.652 17.599 468.094 17.682 467.814 17.1347C467.6 16.7184 467.041 16.5321 466.571 16.7208C466.101 16.9093 465.717 16.8427 465.717 16.5727C465.717 16.3026 464.771 16.0482 463.615 16.0073C462.459 15.9664 456.048 15.6238 449.37 15.2461C442.691 14.8683 429.239 14.4499 419.478 14.3162C409.716 14.1825 400.678 13.9234 399.394 13.7404C395.042 13.1203 371.115 11.6824 358.293 11.2704C334.534 10.5071 316.521 8.29947 312.807 5.69589C311.645 4.88147 309.598 4.22388 308.128 4.19284C296.04 3.93765 279.253 3.11978 271.886 2.42715C268.804 2.13733 263.396 1.73273 259.869 1.52808C256.342 1.32339 251.346 0.895874 248.766 0.578003C246.186 0.260132 243.922 0 243.735 0C243.548 0 243.395 0.698822 243.395 1.55295L243.396 1.55194ZM243.396 7.07352C243.396 7.73737 242.982 7.78702 241.562 7.2934C240.467 6.91254 239.947 6.28702 240.27 5.73941C240.687 5.03317 241.108 4.98273 242.104 5.51956C242.814 5.90271 243.396 6.60199 243.396 7.07352ZM400.795 16.0995C404.45 16.951 404.358 16.9635 396.592 16.6677C378.808 15.9902 373.239 15.647 373.239 15.2286C373.239 14.4369 396.865 15.1836 400.795 16.0995ZM-33.1046 23.4279C-33.1046 23.5591 -33.7351 23.6664 -34.5058 23.6664C-35.2764 23.6664 -35.907 23.4019 -35.907 23.0786C-35.907 22.7553 -35.2764 22.648 -34.5058 22.8401C-33.7351 23.0323 -33.1046 23.2968 -33.1046 23.4279ZM34.6193 25.487C34.9454 25.8298 34.1803 26.0939 32.8613 26.0939C31.5769 26.0939 30.2662 25.8208 29.9487 25.487C29.6226 25.1443 30.3877 24.8802 31.7067 24.8802C32.9911 24.8802 34.3018 25.1533 34.6193 25.487ZM-9.75153 28.592C-9.75153 29.2182 -10.87 29.277 -12.9445 28.7598C-15.2885 28.1754 -14.6594 27.4464 -12.0869 27.7659C-10.8024 27.9254 -9.75153 28.2972 -9.75153 28.592ZM518.809 28.6908C521.996 29.2676 522.434 29.4892 520.863 29.731C518.371 30.1148 488.65 29.3038 472.723 28.4173C468.395 28.1764 501.82 27.5882 508.687 27.7844C512.026 27.8798 516.581 28.2877 518.809 28.6908ZM551.189 30.5585C552.217 30.7165 550.325 30.8234 546.986 30.7962C539.015 30.7313 535.86 30.1738 540.914 29.7233C542.969 29.5402 545.701 29.5886 546.986 29.8308C548.27 30.0732 550.162 30.4006 551.189 30.5585V30.5585ZM-44.9383 30.3802C-43.0148 30.4167 -43.0274 30.4484 -45.1872 31.009C-47.7341 31.67 -49.9188 31.3408 -49.9188 30.2959C-49.9188 29.9153 -49.2553 29.7705 -48.4412 29.9734C-47.6286 30.176 -46.0522 30.3591 -44.9383 30.3802ZM565.222 31.0634C565.472 31.2257 563.809 31.4044 561.527 31.4604C559.245 31.5165 557.087 31.2571 556.732 30.8839C556.279 30.4071 557.377 30.2891 560.427 30.4868C562.814 30.6416 564.972 30.9011 565.222 31.0634ZM1295.68 38.2309C1296.04 38.6067 1294.55 38.8104 1291.77 38.766C1287.78 38.7022 1287.59 38.6422 1290.08 38.2309C1294.17 37.5552 1295.04 37.5552 1295.68 38.2309ZM-144.09 47.1414C-144.764 47.3167 -145.57 47.2952 -145.88 47.0935C-146.191 46.8919 -145.639 46.7484 -144.654 46.7748C-143.566 46.8039 -143.345 46.9477 -144.09 47.1414V47.1414ZM-133.056 47.9406C-131.178 48.3312 -131.087 48.43 -132.589 48.4443C-133.616 48.4542 -135.298 48.2275 -136.325 47.9406C-138.705 47.2761 -136.25 47.2761 -133.056 47.9406ZM-120.521 47.7021C-119.709 47.9047 -119.044 48.5614 -119.044 49.1615C-119.044 50.0911 -119.631 50.2048 -123.014 49.9302C-127.306 49.5817 -130.107 48.5475 -126.759 48.5475C-125.659 48.5475 -124.499 48.2744 -124.182 47.9406C-123.517 47.2421 -122.605 47.1827 -120.521 47.7021ZM1397.04 58.2572C1397.04 58.5909 1396.3 58.8599 1395.4 58.8548C1394.01 58.8471 1393.97 58.76 1395.17 58.2572C1396.93 57.517 1397.04 57.517 1397.04 58.2572ZM-97.3839 82.946C-98.0582 83.1213 -98.8639 83.0997 -99.1743 82.8981C-99.4847 82.6964 -98.933 82.553 -97.9483 82.5794C-96.8601 82.6086 -96.6387 82.7523 -97.3839 82.946V82.946ZM-105.032 84.7166C-105.032 85.7057 -107.63 85.8169 -111.043 84.9739C-114.759 84.0562 -113.877 83.4104 -109.236 83.6502C-106.416 83.7959 -105.032 84.1469 -105.032 84.7166ZM-87.6811 84.2788C-88.6138 85.2592 -91.9543 85.5093 -91.9543 84.5986C-91.9543 84.0876 -90.9952 83.7452 -89.5639 83.7452C-88.2491 83.7452 -87.4019 83.9853 -87.6811 84.2788ZM-94.7567 84.9589C-93.7144 85.3964 -94.2528 85.5495 -96.8585 85.5565C-98.7851 85.562 -100.361 85.2926 -100.361 84.9589C-100.361 84.1859 -96.5977 84.1859 -94.7567 84.9589ZM1462.43 155.961C1462.43 156.295 1462.01 156.568 1461.49 156.568C1460.98 156.568 1460.56 156.295 1460.56 155.961C1460.56 155.627 1460.98 155.354 1461.49 155.354C1462.01 155.354 1462.43 155.627 1462.43 155.961ZM1469.2 167.286C1468.56 167.455 1467.51 167.455 1466.86 167.286C1466.22 167.118 1466.75 166.98 1468.03 166.98C1469.32 166.98 1469.84 167.118 1469.2 167.286ZM1455.19 174.595C1454.03 174.74 1452.14 174.74 1450.98 174.595C1449.83 174.451 1450.77 174.332 1453.08 174.332C1455.4 174.332 1456.34 174.451 1455.19 174.595ZM1411.98 179.494C1411.98 179.754 1408.52 180.29 1404.28 180.686C1400.04 181.082 1395.56 181.595 1394.32 181.827C1392.93 182.088 1392.29 182.02 1392.65 181.647C1392.96 181.317 1396.91 180.699 1401.43 180.274C1405.95 179.85 1410.07 179.416 1410.58 179.31C1411.1 179.204 1411.62 179.096 1411.75 179.07C1411.88 179.043 1411.98 179.234 1411.98 179.494ZM49.5653 185.09C51.2334 185.556 51.1643 185.616 48.9198 185.654C47.5372 185.678 46.1463 185.424 45.8288 185.09C45.1395 184.366 46.9701 184.366 49.5653 185.09ZM1405.44 188.646C1405.44 188.932 1401.23 189.479 1396.07 189.859C1384.46 190.717 1382.37 190.735 1383.56 189.963C1384.06 189.64 1389.08 189.132 1394.72 188.834C1400.36 188.537 1405.08 188.256 1405.21 188.209C1405.34 188.163 1405.44 188.359 1405.44 188.646V188.646ZM-2.84183 195.913C-2.57722 196.191 -2.97263 196.418 -3.72083 196.418C-4.46887 196.418 -5.08092 196.191 -5.08092 195.913C-5.08092 195.634 -4.68535 195.407 -4.20192 195.407C-3.71848 195.407 -3.10645 195.634 -2.84183 195.913ZM122.135 197.035C121.461 197.21 120.655 197.189 120.345 196.987C120.034 196.786 120.586 196.642 121.571 196.669C122.659 196.698 122.88 196.841 122.135 197.035V197.035ZM-22.8292 197.834C-22.8292 198.168 -23.5649 198.437 -24.4639 198.432C-25.861 198.424 -25.8949 198.337 -24.6975 197.834C-22.9346 197.094 -22.8292 197.094 -22.8292 197.834ZM-19.0928 198.78C-19.0928 198.928 -19.5131 199.048 -20.0269 199.048C-20.5406 199.048 -20.961 198.759 -20.961 198.405C-20.961 198.052 -20.5406 197.931 -20.0269 198.138C-19.5131 198.344 -19.0928 198.633 -19.0928 198.78ZM34.1522 203.006C35.4366 203.239 39.4301 203.658 43.0264 203.936C46.6228 204.215 51.0365 204.731 52.8347 205.084C54.6329 205.437 56.1041 205.703 56.1041 205.675C56.1041 205.442 62.5026 206.741 65.6789 207.618C70.498 208.949 70.8023 209.971 66.3795 209.971C64.0961 209.971 63.11 210.246 63.11 210.882C63.11 211.815 67.2908 212.184 74.2306 211.863C77.2539 211.723 85.88 212.769 87.8549 213.515C89.33 214.072 84.6159 214.7 78.4667 214.766C74.4662 214.809 71.0575 214.381 66.8466 213.309C63.5691 212.475 60.0215 211.788 58.9629 211.783C57.4299 211.775 57.3143 211.66 58.3948 211.216C59.141 210.909 60.0867 210.793 60.4966 210.958C60.9065 211.122 61.2418 210.998 61.2418 210.683C61.2418 210.14 59.1971 209.756 52.0623 208.96C50.3531 208.77 48.7277 208.23 48.4503 207.76C48.0379 207.062 47.6784 207.047 46.4789 207.68C45.2503 208.328 45.1013 208.299 45.5621 207.498C45.9645 206.799 45.5722 206.569 44.1022 206.643C42.9968 206.699 40.6974 206.497 38.9926 206.194C36.8432 205.812 35.4831 205.865 34.5556 206.365C33.8034 206.77 33.2181 206.824 33.2181 206.487C33.2181 205.818 26.1007 203.903 23.6121 203.903C22.7302 203.903 22.0087 203.529 22.0087 203.073C22.0087 202.455 23.2613 202.287 26.9128 202.413C29.6101 202.506 32.8678 202.772 34.1522 203.006V203.006ZM72.579 225.014C71.9051 225.16 70.9095 224.991 70.3667 224.638C69.6736 224.188 70.0382 224.109 71.592 224.373C72.8551 224.587 73.2786 224.863 72.579 225.014ZM1200.87 227.419C1200.87 227.669 1199.59 227.932 1198.03 228.003C1196.41 228.077 1195.44 227.882 1195.76 227.548C1196.41 226.863 1200.87 226.75 1200.87 227.419ZM75.2536 231.242L77.589 231.288L75.41 231.856C72.9485 232.497 68.7148 232.003 68.7148 231.075C68.7148 230.736 69.6543 230.627 70.8166 230.829C71.9725 231.03 73.9692 231.216 75.2536 231.242ZM1193.4 231.11C1193.4 231.388 1192.77 231.616 1192 231.616C1191.23 231.616 1190.6 231.388 1190.6 231.11C1190.6 230.832 1191.23 230.605 1192 230.605C1192.77 230.605 1193.4 230.832 1193.4 231.11ZM1197.31 231.019C1196.64 231.194 1195.83 231.173 1195.52 230.971C1195.21 230.77 1195.76 230.626 1196.75 230.653C1197.83 230.682 1198.06 230.825 1197.31 231.019V231.019ZM91.3089 232.233C90.6346 232.408 89.8289 232.387 89.5185 232.185C89.2081 231.983 89.7598 231.84 90.7445 231.866C91.8327 231.895 92.054 232.039 91.3089 232.233V232.233ZM-13.488 233.032C-13.488 233.366 -13.9084 233.639 -14.4221 233.639C-14.9359 233.639 -15.3563 233.366 -15.3563 233.032C-15.3563 232.698 -14.9359 232.425 -14.4221 232.425C-13.9084 232.425 -13.488 232.698 -13.488 233.032ZM10.7992 234.623C10.7992 235.303 9.04489 234.707 8.54243 233.856C8.05046 233.024 8.18713 232.986 9.3766 233.627C10.159 234.049 10.7992 234.497 10.7992 234.623ZM20.1404 234.549C20.1404 235.05 19.9751 235.459 19.7733 235.459C19.5714 235.459 19.1642 235.05 18.8685 234.549C18.5728 234.048 18.7378 233.639 19.2356 233.639C19.7332 233.639 20.1404 234.048 20.1404 234.549ZM1243.08 255.293C1242.41 255.469 1241.6 255.447 1241.29 255.246C1240.98 255.044 1241.53 254.9 1242.52 254.927C1243.61 254.956 1243.83 255.1 1243.08 255.293V255.293ZM383.007 267.581C383.303 267.892 383.161 268.3 382.693 268.488C382.225 268.676 381.601 268.422 381.306 267.923C380.725 266.94 382.129 266.658 383.007 267.581ZM-60.3796 7.12961C-60.9172 7.54681 -60.9903 7.89648 -60.542 7.90662C-60.0938 7.9165 -60.5131 8.22177 -61.4738 8.58438C-63.9384 9.51459 -61.755 10.312 -56.9247 10.2458C-54.4019 10.2113 -53.795 10.0664 -55.0564 9.79996C-56.8363 9.42398 -58.1631 7.87903 -56.6912 7.89645C-53.9484 7.92899 -51.9676 8.72205 -52.395 9.61679C-52.8122 10.4904 -52.7008 10.4827 -51.5267 9.55701C-49.9313 8.29904 -42.8229 8.06754 -42.2085 9.25357C-41.8964 9.85602 -41.5166 9.85193 -40.3633 9.23358C-38.5449 8.25879 -37.4718 5.89023 -39.0163 6.26038C-39.6181 6.4046 -39.9743 6.89044 -39.8078 7.34C-39.5962 7.91165 -40.0249 7.85181 -41.2339 7.14102C-42.6144 6.32938 -44.6181 6.14944 -51.1824 6.24777C-56.4023 6.32593 -59.7588 6.64771 -60.3795 7.12943L-60.3796 7.12961ZM-73.2026 8.46719C-74.447 8.9668 -73.8485 10.3156 -72.3826 10.3156C-71.317 10.3156 -70.3815 8.60199 -71.2555 8.25107C-71.6429 8.09549 -72.5191 8.19281 -73.2026 8.46719ZM-53.4385 13.3499C-54.4717 14.4247 -54.3638 14.5742 -52.4955 14.656C-51.3352 14.7068 -49.7553 14.793 -48.9847 14.8476C-46.4928 15.0239 -46.024 14.4694 -47.6674 13.2896C-49.7435 11.7993 -51.9703 11.8225 -53.4385 13.3499ZM512.423 17.8655C512.423 18.0127 512.843 18.3019 513.357 18.5082C513.871 18.7144 514.291 18.594 514.291 18.2405C514.291 17.8871 513.871 17.5978 513.357 17.5978C512.843 17.5978 512.423 17.7183 512.423 17.8655ZM523.383 18.28C524.017 18.6948 524.771 18.8812 525.058 18.6944C525.346 18.5075 524.828 18.1682 523.906 17.9403C522.575 17.611 522.468 17.6807 523.383 18.28ZM22.0087 19.951C22.0087 20.2439 22.657 20.8331 23.4494 21.2604C24.5695 21.8643 25.1395 21.8752 26.0104 21.3094C26.8814 20.7436 26.8206 20.4542 25.7373 20.0093C23.9758 19.2858 22.0087 19.255 22.0087 19.951V19.951ZM1076.63 25.487C1076.63 25.8208 1077.24 26.0939 1077.98 26.0939C1078.72 26.0939 1079.59 25.8208 1079.9 25.487C1080.22 25.1533 1079.61 24.8802 1078.56 24.8802C1077.5 24.8802 1076.63 25.1533 1076.63 25.487ZM1060.75 26.1316C1060.75 26.8224 1063.26 26.8927 1063.9 26.2198C1064.15 25.9554 1063.55 25.6992 1062.56 25.6507C1061.56 25.6021 1060.75 25.8185 1060.75 26.1316ZM134.378 27.1108C133.538 28.5339 134.818 28.7427 138.047 27.7089C139.731 27.1696 140.689 26.6873 140.175 26.6371C136.238 26.2524 134.817 26.3686 134.378 27.1108ZM942.12 28.5213C942.12 28.8551 942.305 29.1281 942.531 29.1281C942.758 29.1281 943.203 28.8551 943.521 28.5213C943.838 28.1875 943.653 27.9144 943.109 27.9144C942.565 27.9144 942.12 28.1875 942.12 28.5213ZM928.652 29.0467C928.25 29.4697 928.173 29.9796 928.481 30.18C929.317 30.7231 930.229 29.9243 929.777 29.0443C929.461 28.4276 929.241 28.4281 928.652 29.0476V29.0467ZM932.078 28.9232C930.165 29.4245 930.754 30.2547 932.778 29.9108C933.806 29.7363 934.647 29.3522 934.647 29.0573C934.647 28.4788 933.918 28.4408 932.078 28.9232ZM1379.91 31.9601C1378.84 32.6584 1379.23 33.3761 1380.69 33.3761C1381.46 33.3761 1382.09 32.9665 1382.09 32.4659C1382.09 31.5182 1380.99 31.2619 1379.91 31.9601ZM220.63 35.6776C220.378 35.9421 220.993 36.1987 221.996 36.2477C222.999 36.2968 223.575 36.0804 223.277 35.7668C222.615 35.0711 221.25 35.0251 220.63 35.6776ZM229.05 36.72C229.343 37.2173 230.274 37.6452 231.119 37.6709C231.963 37.6966 234.545 37.8406 236.857 37.991C239.888 38.1881 240.67 38.0931 239.659 37.6501C238.503 37.1434 238.49 37.0342 239.581 37.0266C240.309 37.0211 240.643 36.8471 240.323 36.6391C240.002 36.4311 237.215 36.1608 234.128 36.0384C229.452 35.853 228.605 35.9668 229.05 36.72ZM-152.165 38.1891C-152.856 38.9152 -151.099 39.6347 -149.855 39.1352C-148.81 38.7157 -149.496 37.6241 -150.804 37.6241C-151.257 37.6241 -151.87 37.8784 -152.165 38.1891ZM-143.331 53.9735C-143.331 54.2875 -142.915 54.7113 -142.408 54.9153C-141.878 55.1279 -141.722 54.8842 -142.041 54.3442C-142.661 53.2929 -143.331 53.1005 -143.331 53.9735ZM-136.481 54.286C-136.481 54.772 -136.124 55.0262 -135.687 54.851C-135.251 54.6757 -135.135 54.2781 -135.431 53.9674C-136.186 53.1734 -136.481 53.2627 -136.481 54.286ZM1491.38 133.508C1490.61 133.831 1490.4 134.096 1490.92 134.096C1491.43 134.096 1492.48 133.831 1493.25 133.508C1494.02 133.184 1494.23 132.919 1493.72 132.919C1493.21 132.919 1492.15 133.184 1491.38 133.508ZM-43.3799 178.544C-43.3799 178.807 -42.5392 179.022 -41.5117 179.022C-40.4842 179.022 -39.6434 178.766 -39.6434 178.453C-39.6434 178.14 -40.4842 177.925 -41.5117 177.975C-42.5392 178.025 -43.3799 178.281 -43.3799 178.544ZM-4.26199 187.456L-6.45245 188.609L-0.862534 189.091C2.21191 189.356 6.93373 189.588 9.6304 189.607C12.3271 189.626 14.5339 189.828 14.5345 190.055C14.5354 190.527 20.0994 189.586 20.9678 188.966C21.2834 188.741 20.2449 188.717 18.6599 188.913C16.8859 189.131 14.7315 188.908 13.0552 188.333C11.5575 187.819 8.12524 187.371 5.42796 187.339C2.73068 187.307 0.523819 187.061 0.523819 186.792C0.523819 185.922 -2.01575 186.275 -4.26199 187.456V187.456ZM-16.0374 187.278C-15.727 187.479 -14.9213 187.501 -14.247 187.325C-13.5018 187.132 -13.7232 186.988 -14.8114 186.959C-15.7961 186.932 -16.3478 187.076 -16.0374 187.278V187.278ZM-33.0309 195.66C-33.0713 196.3 -32.8506 196.658 -32.5402 196.456C-32.2298 196.255 -32.1966 195.731 -32.4665 195.293C-32.7647 194.809 -32.986 194.953 -33.0308 195.66H-33.0309ZM-7.5192 200.76C-7.25832 201.035 -7.90509 201.738 -8.95645 202.322C-10.8374 203.369 -10.7755 203.414 -5.08824 205.161C1.76143 207.266 2.39207 207.313 2.39207 205.724C2.39207 204.976 1.76456 204.506 0.757355 204.501C-0.567581 204.493 -0.626907 204.388 0.444214 203.948C1.17108 203.649 2.53723 203.501 3.48012 203.619C4.42297 203.737 5.19444 203.555 5.19444 203.215C5.19444 202.875 3.82829 202.645 2.15855 202.704C0.4888 202.764 -1.71806 202.78 -2.74561 202.741C-4.30203 202.682 -4.37997 202.572 -3.21265 202.082C-2.01521 201.579 -2.04915 201.493 -3.4462 201.485C-4.34529 201.479 -5.08092 201.202 -5.08092 200.868C-5.08092 200.535 -5.73627 200.262 -6.53722 200.262C-7.3382 200.262 -7.78008 200.486 -7.5192 200.76V200.76ZM4.42497 205.657C3.48587 206.034 3.52246 206.288 4.59999 206.869C6.11153 207.684 7.31606 206.972 6.2758 205.878C5.90494 205.488 5.08849 205.391 4.42497 205.657ZM-27.9669 231.212C-28.2845 231.545 -27.9136 231.818 -27.143 231.818C-26.3724 231.818 -25.4821 231.545 -25.1646 231.212C-24.847 230.878 -25.2177 230.605 -25.9884 230.605C-26.7591 230.605 -27.6494 230.878 -27.9669 231.212ZM-8.83516 233.928C-7.48988 234.981 -6.94914 235.091 -6.94914 234.311C-6.94914 234.013 -7.63914 233.597 -8.48247 233.387C-9.76454 233.067 -9.82233 233.156 -8.83516 233.928ZM1311.36 243.722C1312.46 244.433 1318.44 244.991 1319.64 244.494C1320.34 244.208 1320.49 243.943 1319.97 243.905C1314.94 243.53 1310.93 243.445 1311.36 243.722ZM1305.69 244.471C1304.91 244.791 1305.49 244.967 1307.32 244.967C1308.89 244.967 1310.16 244.739 1310.16 244.461C1310.16 243.815 1307.26 243.821 1305.69 244.471V244.471ZM1281.67 245.245C1277.67 245.827 1267.97 246.244 1249.83 246.614C1243.62 246.74 1237.64 247.156 1236.54 247.538C1235.34 247.954 1231.16 248.165 1226.11 248.065C1221.48 247.972 1217.69 247.959 1217.69 248.035C1217.69 248.246 1223.12 250.025 1223.77 250.025C1224.08 250.025 1224.07 249.751 1223.76 249.418C1223.42 249.064 1224.37 248.811 1226.04 248.811C1227.61 248.811 1228.9 249.084 1228.9 249.418C1228.9 249.751 1229.34 250.025 1229.88 250.025C1230.43 250.025 1230.56 249.683 1230.17 249.266C1229.65 248.705 1229.82 248.667 1230.82 249.122C1231.56 249.46 1233.01 249.705 1234.03 249.667C1235.06 249.629 1238.13 249.557 1240.86 249.507C1243.59 249.458 1245.62 249.213 1245.39 248.963C1245.15 248.712 1247.54 248.547 1250.7 248.596C1253.86 248.646 1257.19 248.431 1258.09 248.12C1259.18 247.742 1259.72 247.775 1259.72 248.218C1259.72 248.584 1260.23 248.678 1260.85 248.429C1261.47 248.18 1265.57 247.901 1269.96 247.81C1274.35 247.719 1277.94 247.612 1277.94 247.573C1277.94 247.533 1280.04 247.412 1282.61 247.304C1285.18 247.196 1287.38 247.047 1287.51 246.973C1287.73 246.847 1288.69 246.663 1290.31 246.438C1291.06 246.334 1286.67 244.572 1285.88 244.654C1285.62 244.681 1283.73 244.947 1281.67 245.246L1281.67 245.245ZM1243.84 248.279C1243.84 248.571 1243.03 248.81 1242.03 248.81C1241.03 248.81 1239.99 248.571 1239.71 248.279C1239.43 247.987 1240.25 247.748 1241.52 247.748C1242.8 247.748 1243.84 247.987 1243.84 248.279ZM1293.81 250.034C1293.48 250.373 1292.83 250.494 1292.35 250.302C1291.87 250.11 1291.48 250.226 1291.48 250.559C1291.48 251.734 1292.99 251.753 1294.1 250.591C1294.73 249.946 1295.04 249.417 1294.81 249.417C1294.58 249.417 1294.13 249.695 1293.81 250.034V250.034ZM1273.81 252.401C1272.83 253.041 1271.83 253.437 1271.59 253.283C1271.35 253.128 1269.11 252.91 1266.61 252.798C1262.27 252.604 1256.9 253.854 1258.26 254.739C1259.35 255.448 1265.8 255.282 1267.21 254.509C1268.65 253.718 1271.28 253.692 1272.46 254.457C1273.45 255.101 1278.22 254.96 1278.88 254.267C1279.77 253.324 1278.44 251.238 1276.94 251.238C1276.2 251.238 1274.8 251.762 1273.81 252.401V252.401ZM1283.45 251.938C1283.05 252.357 1283.19 252.475 1283.8 252.232C1284.36 252.008 1285.08 252.102 1285.4 252.442C1286.27 253.357 1287.43 253.189 1287.43 252.148C1287.43 251.079 1284.42 250.92 1283.45 251.938ZM191.338 256.459C191.648 256.661 192.454 256.683 193.128 256.507C193.873 256.313 193.652 256.17 192.564 256.14C191.579 256.114 191.027 256.257 191.338 256.459V256.459ZM379.778 273.692C379.778 274.025 379.963 274.298 380.19 274.298C380.416 274.298 380.861 274.025 381.179 273.692C381.496 273.358 381.311 273.085 380.767 273.085C380.223 273.085 379.778 273.358 379.778 273.692ZM401.56 273.63C400.052 274.35 400.412 275.384 402.073 275.102C403.132 274.922 403.811 275.17 403.909 275.771C403.995 276.296 404.135 277.135 404.221 277.636C404.306 278.137 405.147 278.58 406.089 278.622C407.031 278.664 408.117 278.754 408.502 278.823C408.887 278.892 410.464 279.169 412.005 279.438C415.432 280.036 417.294 280.93 416.61 281.649C416.328 281.945 416.929 282.187 417.944 282.187C418.959 282.187 420.002 281.846 420.263 281.429C420.592 280.902 420.972 280.869 421.508 281.321C422.88 282.479 425.74 282.84 427.249 282.046C428.46 281.409 428.573 281.425 427.911 282.139C427.304 282.793 427.503 282.903 428.742 282.594C429.639 282.37 430.941 282.187 431.635 282.187C432.329 282.187 433.15 281.669 433.459 281.036C433.821 280.296 434.622 279.987 435.702 280.17C438.086 280.575 437.839 282.076 435.436 281.788C433.536 281.561 433.535 281.57 435.358 282.132C436.385 282.45 438.649 282.728 440.388 282.752C442.127 282.775 446.12 283.062 449.262 283.39C457.405 284.238 477.875 285.725 487.202 286.145C491.569 286.342 497.033 286.611 499.345 286.743C504.216 287.022 513.832 287.466 526.435 287.994C531.316 288.198 538.041 288.516 541.381 288.699C549.407 289.141 562.042 289.174 563.8 288.758C564.57 288.575 566.987 288.216 569.171 287.96C571.354 287.704 573.141 287.293 573.141 287.047C573.141 286.802 572.102 285.926 570.832 285.101C568.952 283.879 567.649 283.611 563.822 283.66C561.027 283.696 559.249 283.471 559.437 283.105C559.61 282.767 562.988 282.468 566.944 282.441C573.156 282.398 577.293 281.613 575.881 280.745C575.249 280.357 562.865 279.973 562.868 280.342C562.869 280.522 560.032 280.585 556.562 280.48C553.093 280.376 547.844 280.538 544.896 280.842C541.949 281.146 539.338 281.265 539.094 281.106C538.85 280.948 536.848 280.761 534.645 280.69C532.441 280.62 529.477 280.351 528.057 280.093C526.523 279.814 524.996 279.884 524.29 280.264C523.638 280.616 519.039 280.967 514.072 281.044C507.923 281.139 505.232 281.393 505.641 281.837C505.972 282.197 505.529 282.115 504.657 281.655C503.566 281.08 501.886 280.943 499.272 281.214C496.776 281.473 495.674 281.396 496.062 280.988C496.724 280.293 496.601 280.279 488.136 280.131C484.796 280.073 481.118 279.811 479.962 279.548C478.806 279.286 477.86 279.294 477.86 279.567C477.86 279.84 476.81 280.063 475.525 280.063C474.241 280.063 473.19 279.858 473.19 279.608C473.19 279.358 472.535 279.153 471.734 279.153C470.933 279.153 470.497 279.384 470.765 279.666C471.413 280.347 461.817 279.346 461.121 278.66C459.846 277.403 442.364 276.129 442.364 277.293C442.364 277.648 441.919 277.939 441.375 277.939C440.831 277.939 440.627 277.685 440.923 277.374C441.768 276.486 439.619 275.939 438.228 276.689C437.296 277.191 436.858 277.161 436.508 276.568C436.205 276.056 434.668 275.823 432.195 275.912C430.081 275.989 428.352 275.797 428.352 275.485C428.352 274.482 423.553 275.141 422.621 276.272C422.125 276.874 421.313 277.203 420.817 277.004C420.321 276.805 420.129 276.416 420.391 276.14C420.654 275.865 420.254 275.486 419.502 275.298C418.751 275.111 417.884 275.223 417.575 275.548C417.233 275.908 416.036 275.784 414.509 275.231C411.636 274.191 402.699 273.086 401.56 273.63L401.56 273.63ZM388.185 276.386C388.185 277.452 388.745 277.609 389.546 276.768C389.842 276.457 389.656 276.031 389.134 275.822C388.612 275.612 388.185 275.866 388.185 276.386ZM391.705 277.435C392.248 277.787 393.243 277.957 393.917 277.811C394.617 277.659 394.193 277.384 392.93 277.169C391.376 276.906 391.012 276.985 391.705 277.435ZM713.493 278.975C712.337 279.119 711.391 279.446 711.391 279.701C711.391 280.443 715.451 280.04 715.853 279.257C716.053 278.866 716.077 278.584 715.906 278.629C715.735 278.675 714.649 278.83 713.493 278.975H713.493ZM694.11 280.367C696.678 281.084 698.153 281.084 696.445 280.367C695.675 280.043 694.414 279.794 693.643 279.812C692.719 279.834 692.878 280.023 694.11 280.367ZM699.768 280.31C699.481 280.613 700.086 280.718 701.115 280.543C703.296 280.172 703.571 279.76 701.638 279.76C700.898 279.76 700.056 280.008 699.768 280.31ZM579.513 281.684C578.043 282.644 578.71 282.71 590.256 282.756C597.026 282.782 603.503 282.921 604.648 283.065C605.793 283.209 606.948 283.097 607.215 282.817C607.481 282.537 608.985 282.366 610.557 282.437C614.808 282.628 614.828 281.744 610.579 281.481C608.57 281.357 607.126 281.465 607.37 281.721C608.137 282.527 606.698 282.228 605.235 281.277C603.646 280.245 599.7 280.059 598.828 280.975C598.443 281.38 597.634 281.37 596.418 280.948C594.35 280.229 592.403 280.717 593.354 281.717C593.769 282.154 593.539 282.195 592.668 281.84C591.947 281.546 589.044 281.16 586.219 280.983C582.175 280.729 580.747 280.878 579.513 281.684V281.684ZM654.41 280.974C654.41 281.308 654.595 281.581 654.822 281.581C655.048 281.581 655.493 281.308 655.811 280.974C656.128 280.64 655.943 280.367 655.399 280.367C654.855 280.367 654.41 280.64 654.41 280.974ZM617.045 282.188C616.203 282.541 616.088 282.78 616.756 282.785C617.368 282.791 618.128 282.521 618.446 282.188C619.163 281.434 618.839 281.434 617.045 282.188ZM981.898 282.27C982.382 282.778 978.823 283.376 978.102 282.908C977.098 282.255 972.946 282.132 972.946 282.755C972.946 283.14 970.288 283.233 965.706 283.007C960.089 282.731 957.734 282.874 955.197 283.642C953.399 284.187 952.636 284.508 953.502 284.355C954.368 284.202 955.209 284.314 955.37 284.604C955.532 284.894 956.295 285.22 957.065 285.328C957.836 285.437 958.775 285.798 959.153 286.132C959.53 286.466 959.846 286.141 959.854 285.41C959.867 284.153 960.008 284.128 962.437 284.952C964.741 285.734 965.139 285.715 966.299 284.764C967.529 283.757 967.565 283.757 967.029 284.764C966.594 285.584 966.981 285.826 968.725 285.826C969.968 285.826 971.413 285.348 971.937 284.764C972.465 284.175 972.901 284.04 972.917 284.461C972.947 285.256 975.748 285.556 975.748 284.764C975.748 284.514 978.926 284.325 982.81 284.344C986.694 284.364 990.081 284.159 990.338 283.889C990.594 283.619 991.704 283.399 992.804 283.399C994.404 283.399 994.571 283.247 993.636 282.64C992.467 281.881 981.19 281.523 981.898 282.268V282.27ZM997.233 282.289C997.233 282.567 997.548 282.813 997.933 282.835C998.319 282.858 999.979 282.991 1001.62 283.13C1005.32 283.444 1006.63 282.403 1003.08 281.978C999.564 281.557 997.233 281.681 997.233 282.289ZM929.977 284.312C929.977 284.645 928.401 284.918 926.474 284.918C924.547 284.918 922.661 284.645 922.284 284.312C921.826 283.907 921.592 283.907 921.581 284.312C921.56 285.072 915.964 285.252 915.964 284.492C915.964 284.186 915.582 284.09 915.115 284.277C914.225 284.634 906.009 285.208 897.282 285.522C894.456 285.624 892.144 285.768 892.144 285.843C892.144 286.25 879.853 286.256 879.067 285.85C877.663 285.124 868.324 284.618 868.324 285.268C868.324 285.576 867.693 285.829 866.923 285.829C866.152 285.829 865.521 285.565 865.521 285.243C865.521 284.877 858.942 284.765 848.007 284.945C838.374 285.102 829.478 285.229 828.239 285.225C826.999 285.22 824.582 285.471 822.867 285.778C820.992 286.115 819.749 286.117 819.749 285.784C819.749 285.232 816.482 285.322 815.596 285.897C815.341 286.064 811.09 286.102 806.15 285.984C800.196 285.841 796.723 286.008 795.848 286.48C794.82 287.034 794.525 287.007 794.514 286.358C794.504 285.832 794.247 285.759 793.813 286.159C793.401 286.54 788.087 286.824 780.516 286.869C773.58 286.91 752.563 287.101 733.81 287.292C715.058 287.482 690.992 287.675 680.332 287.719C669.671 287.763 660.948 287.971 660.946 288.18C660.946 288.389 658.633 288.56 655.809 288.56C652.984 288.56 650.673 288.355 650.673 288.105C650.673 287.854 650.228 287.649 649.684 287.649C649.14 287.649 648.954 287.923 649.272 288.256C649.589 288.59 649.194 288.863 648.393 288.863C647.592 288.863 646.937 289.136 646.937 289.47C646.937 289.804 646.492 290.077 645.947 290.077C645.403 290.077 645.218 289.804 645.536 289.47C645.877 289.111 644.848 288.867 643.022 288.872C640.682 288.88 640.271 289.025 641.332 289.47C642.367 289.904 642.41 290.06 641.499 290.067C640.548 290.075 640.586 290.286 641.666 290.987C642.436 291.488 643.938 291.897 645.002 291.897C646.066 291.897 646.937 292.189 646.937 292.545C646.937 292.929 647.744 293.026 648.922 292.783C650.258 292.508 650.698 292.594 650.268 293.046C649.916 293.415 649.877 293.718 650.181 293.718C650.485 293.718 651.053 293.156 651.444 292.47L652.155 291.222L654.618 292.48C656.307 293.343 657.286 293.525 657.731 293.057C658.191 292.573 658.608 292.614 659.163 293.198C659.799 293.867 666.208 294.017 693.375 293.999C711.761 293.986 734.371 293.801 743.618 293.586C752.866 293.372 768.209 293.038 777.714 292.844C812.034 292.146 820.876 291.892 821.645 291.583C823.363 290.893 830.89 290.281 832.03 290.739C832.732 291.021 833.551 290.92 833.97 290.5C834.511 289.958 834.929 290.004 835.615 290.684C836.121 291.184 836.542 291.321 836.551 290.987C836.561 290.604 842.338 290.407 852.211 290.453C867.816 290.527 894.478 289.547 894.48 288.9C894.481 288.713 897.739 288.59 901.72 288.628C908.542 288.692 924.259 287.862 927.045 287.289C928.073 287.078 928.093 286.851 927.147 286.111C926.193 285.365 926.217 285.244 927.275 285.461C927.99 285.607 929.748 285.895 931.182 286.099C932.788 286.328 933.582 286.755 933.249 287.212C932.952 287.619 933.198 287.525 933.797 287.003C934.678 286.235 935.878 286.14 940.073 286.51C943.023 286.77 945.966 286.722 946.898 286.398C947.799 286.085 949.719 285.791 951.166 285.746C953.589 285.67 953.619 285.642 951.543 285.387C949.799 285.174 949.588 284.989 950.609 284.569C952.053 283.975 950.839 283.901 937.683 283.777C933.093 283.734 929.976 283.95 929.977 284.311L929.977 284.312ZM658.486 289.77C658.191 290.269 657.574 290.525 657.114 290.341C655.795 289.811 656.139 288.863 657.65 288.863C658.483 288.863 658.811 289.219 658.486 289.77ZM604.005 287.695C604.966 288.862 604.909 288.995 603.587 288.665C602.268 288.336 602.209 288.469 603.159 289.623L604.262 290.962L605.191 289.609C606.258 288.057 608.187 287.831 608.975 289.166C609.271 289.667 609.176 290.077 608.764 290.077C608.352 290.077 608.015 290.49 608.015 290.994C608.015 291.741 608.859 291.839 612.53 291.523C615.614 291.257 617.045 291.351 617.045 291.819C617.045 292.2 618.523 292.504 620.369 292.504C622.549 292.504 623.475 292.274 623.059 291.837C622.608 291.362 622.991 291.366 624.384 291.851C626.012 292.417 626.252 292.376 625.798 291.608C625.498 291.099 624.877 290.683 624.418 290.683C623.959 290.683 623.584 290.41 623.584 290.077C623.584 288.812 625.272 289.543 626.386 291.29C627.685 293.328 627.719 293.34 630.061 292.526C631.242 292.115 631.607 291.474 631.284 290.376C631.031 289.516 631.192 288.892 631.641 288.989C632.09 289.087 632.668 288.9 632.925 288.573C633.201 288.222 630.981 287.938 627.49 287.877C622.094 287.783 621.5 287.899 620.567 289.229C619.562 290.663 616.111 291.291 616.111 290.041C616.111 289.687 616.526 289.565 617.034 289.769C617.555 289.978 617.725 289.746 617.424 289.236C617.112 288.708 616.276 288.486 615.413 288.701C614.453 288.94 614.166 288.827 614.594 288.377C615.346 287.587 612.241 287.004 608.638 287.258C607.353 287.348 605.535 287.18 604.597 286.883C603.069 286.4 603.007 286.484 604.005 287.695V287.695ZM629.559 289.976C629.824 290.254 629.447 290.481 628.721 290.481C627.996 290.481 627.619 290.254 627.883 289.976C628.148 289.697 628.525 289.47 628.721 289.47C628.917 289.47 629.295 289.697 629.559 289.976ZM591.422 287.58C591.141 287.876 591.748 288.26 592.772 288.434C594.012 288.645 594.443 289.073 594.063 289.717C593.749 290.249 593.887 290.684 594.37 290.684C595.651 290.684 595.444 288.701 594.07 287.808C592.676 286.902 592.113 286.854 591.422 287.58ZM597.15 289.268C597.413 289.713 597.748 290.077 597.895 290.077C598.042 290.077 598.377 289.713 598.64 289.268C598.903 288.822 598.568 288.458 597.895 288.458C597.223 288.458 596.887 288.822 597.15 289.268ZM600.753 290.968C601.75 291.458 603.487 291.867 604.612 291.878C606.841 291.899 608.26 290.979 606.864 290.418C606.386 290.226 605.834 290.383 605.637 290.767C605.368 291.291 604.783 291.292 603.283 290.772C600.412 289.774 598.606 289.915 600.753 290.969V290.968ZM588.34 291.05C588.65 291.252 589.456 291.273 590.13 291.098C590.875 290.904 590.654 290.761 589.566 290.731C588.581 290.705 588.03 290.848 588.34 291.05V291.05ZM637.595 291.29C636.398 291.793 636.432 291.88 637.829 291.888C638.728 291.894 639.464 291.624 639.464 291.29C639.464 290.55 639.358 290.55 637.595 291.29ZM632.579 292.215C632.133 292.969 632.373 293.021 633.88 292.497C636.045 291.744 636.251 291.29 634.426 291.29C633.71 291.29 632.879 291.706 632.579 292.215Z" fill="black"/>
</svg>
