<svg width="478" height="476" viewBox="0 0 478 476" fill="none" xmlns="http://www.w3.org/2000/svg">
<path d="M214.556 475.157L202.541 473.355C198.486 472.746 195.608 471.202 193.907 468.722C192.207 466.242 191.671 462.901 192.302 458.698L193.07 453.58C193.701 449.377 195.193 446.34 197.546 444.469C199.9 442.597 203.104 441.966 207.159 442.574L211.016 443.153L214.187 422.014L222.346 423.239L214.556 475.157ZM206.046 449.991C204.711 449.791 203.667 450.013 202.912 450.659C202.109 451.296 201.574 452.505 201.307 454.285L200.383 460.441C200.116 462.222 200.273 463.534 200.854 464.38C201.385 465.218 202.318 465.737 203.654 465.938L207.51 466.516L209.903 450.57L206.046 449.991Z" fill="white"/>
<path d="M166.584 465.032L156.021 461.386L165.068 408.97L172.867 411.662L170.883 422.005L170.932 421.864L179.794 424.923L184.565 415.699L191.796 418.195L166.584 465.032ZM169.529 428.917L164.536 454.646L164.678 454.695L176.548 431.339L169.529 428.917Z" fill="white"/>
<path d="M130.77 450.662L120.167 444.577C116.481 442.461 114.29 440.051 113.595 437.345C112.874 434.684 113.534 431.575 115.575 428.019L117.181 425.222C119.894 420.495 123.172 418.399 127.016 418.933L127.091 418.803C125.655 417.287 125.05 415.528 125.278 413.525C125.461 411.497 126.325 409.139 127.868 406.451L132.46 398.45C133.207 397.149 133.773 396.062 134.159 395.188C134.52 394.357 134.752 393.452 134.853 392.473L142.138 396.654C141.975 397.541 141.75 398.334 141.464 399.034C141.177 399.735 140.548 400.93 139.578 402.622L134.799 410.948C133.604 413.029 133.117 414.681 133.338 415.903C133.516 417.101 134.429 418.172 136.077 419.118L138.548 420.537L149.749 401.022L156.904 405.129L130.77 450.662ZM132.213 425.548C130.782 424.727 129.508 424.485 128.391 424.824C127.231 425.138 126.153 426.163 125.157 427.897L123.141 431.41C122.195 433.058 121.814 434.425 121.998 435.51C122.139 436.571 122.838 437.462 124.096 438.184L127.348 440.051L134.815 427.041L132.213 425.548Z" fill="white"/>
<path d="M94.5223 427.65L88.0445 422.541L120.556 381.319L127.033 386.428L94.5223 427.65Z" fill="white"/>
<path d="M105.15 365.979C107.918 368.867 109.199 371.83 108.992 374.867C108.75 377.938 107.095 380.944 104.026 383.885L101.86 385.96L96.4636 380.329L99.0628 377.838C101.518 375.486 101.759 373.28 99.7871 371.223C98.8185 370.212 97.8032 369.731 96.7413 369.779C95.6086 369.825 94.3745 370.489 93.0388 371.769C91.4504 373.291 90.4065 374.984 89.9071 376.847C89.3716 378.746 89.1895 381.482 89.3609 385.058C89.5474 389.588 89.2412 393.171 88.4425 395.806C87.6077 398.476 86.0892 400.866 83.8871 402.976C80.8908 405.848 77.8539 407.304 74.7764 407.344C71.6629 407.419 68.7223 406.013 65.9547 403.125C63.2217 400.273 61.9936 397.33 62.2705 394.294C62.4766 391.257 64.1139 388.269 67.1824 385.328L68.7527 383.823L74.1495 389.455L72.2001 391.323C70.9005 392.568 70.2041 393.72 70.1108 394.779C69.9814 395.873 70.3838 396.907 71.3178 397.882C73.2205 399.867 75.3812 399.701 77.7999 397.383C79.1717 396.069 80.1073 394.479 80.6067 392.616C81.0715 390.716 81.2182 387.979 81.0468 384.403C80.8258 379.837 81.15 376.236 82.0194 373.603C82.8888 370.969 84.5149 368.511 86.8975 366.227C90.002 363.252 93.1284 361.745 96.2766 361.706C99.3902 361.631 102.348 363.055 105.15 365.979Z" fill="white"/>
<path d="M33.9278 361.428L30.3975 354.305L64.9191 333.094L64.8525 332.96L26.9672 347.383L22.9706 339.319L57.3922 317.907L57.3256 317.772L19.5402 332.397L16.3763 326.013L65.7808 307.471L70.3435 316.678L40.2904 335.758L40.357 335.892L73.7406 323.532L78.603 333.343L33.9278 361.428Z" fill="white"/>
<path d="M11.1428 308.944L8.8268 301.026L59.2157 286.288L61.5317 294.206L11.1428 308.944Z" fill="white"/>
<path d="M10.9114 275.727L12.1633 284.261L4.74273 285.35L1.0415 260.12L8.46208 259.031L9.71396 267.565L54.2374 261.033L55.4349 269.196L10.9114 275.727Z" fill="white"/>
<path d="M0 241.716L0.31159 233.471L21.6713 234.279L22.0056 225.435L0.645841 224.628L0.957431 216.384L53.42 218.366L53.1084 226.611L29.5002 225.718L29.166 234.562L52.7741 235.454L52.4625 243.698L0 241.716Z" fill="white"/>
<path d="M8.6678 174.484L11.187 166.628L54.0377 180.369L58.1829 167.443L65.3247 169.733L58.6603 190.515L8.6678 174.484Z" fill="white"/>
<path d="M74.7513 151.824C72.86 155.406 70.3954 157.61 67.3575 158.437C64.3197 159.264 60.9438 158.697 57.2299 156.735L32.8244 143.846C29.1105 141.885 26.7387 139.417 25.7089 136.441C24.6792 133.466 25.1099 130.188 27.0013 126.607C28.8926 123.025 31.3572 120.821 34.395 119.994C37.4329 119.167 40.8087 119.734 44.5226 121.696L68.9282 134.585C72.6421 136.546 75.0139 139.014 76.0437 141.99C77.0734 144.965 76.6426 148.243 74.7513 151.824ZM68.1193 148.322C69.4503 145.802 68.5904 143.736 65.5397 142.125L40.2057 128.746C37.155 127.134 34.9642 127.589 33.6332 130.109C32.3023 132.629 33.1622 134.695 36.2129 136.306L61.5469 149.686C64.5976 151.297 66.7884 150.842 68.1193 148.322Z" fill="white"/>
<path d="M93.6176 122.827C91.1668 125.925 88.4076 127.599 85.3401 127.85C82.3037 128.062 79.1777 126.896 75.9623 124.352L53.8468 106.855C50.6315 104.311 48.7775 101.537 48.2849 98.5333C47.8233 95.4904 48.8179 92.42 51.2687 89.3223C53.7196 86.2245 56.4632 84.5698 59.4997 84.3582C62.5672 84.1073 65.7086 85.2538 68.924 87.7977L73.2765 91.2413L68.4369 97.3583L63.6727 93.589C61.1239 91.5725 58.9964 91.6426 57.2901 93.7993C55.5839 95.9559 56.0051 98.0425 58.5539 100.059L81.5517 118.254C84.0613 120.239 86.1692 120.154 87.8754 117.997C89.5817 115.841 89.18 113.769 86.6705 111.784L80.377 106.805L85.2166 100.688L91.0395 105.295C94.2549 107.839 96.0934 110.632 96.5549 113.675C97.0475 116.679 96.0684 119.729 93.6176 122.827Z" fill="white"/>
<path d="M77.2834 62.3157L85.6994 54.9637L126.678 88.8766L120.465 94.3043L112.477 87.44L112.576 87.553L105.515 93.7208L111.146 102.446L105.384 107.479L77.2834 62.3157ZM107.154 82.8286L87.3135 65.7033L87.2006 65.802L101.562 87.7135L107.154 82.8286Z" fill="white"/>
<path d="M107.099 38.8328L114.164 34.5738L137.395 73.1139L149.021 66.1059L152.893 72.5293L134.201 83.7962L107.099 38.8328Z" fill="white"/>
<path d="M170.699 65.665C166.976 67.1291 163.749 67.1894 161.018 65.8459C158.268 64.4559 156.116 61.7833 154.56 57.8283L153.462 55.0365L160.721 52.1814L162.039 55.5316C163.283 58.6957 165.231 59.7561 167.884 58.7129C169.186 58.2005 170.017 57.4439 170.376 56.4432C170.763 55.3777 170.617 53.9841 169.94 52.2625C169.135 50.2151 167.965 48.6068 166.431 47.4373C164.878 46.2213 162.415 45.014 159.042 43.8153C154.78 42.268 151.581 40.6247 149.447 38.8854C147.294 37.0995 145.659 34.7875 144.542 31.9491C143.023 28.0871 142.829 24.7249 143.96 21.8623C145.072 18.9533 147.49 16.7667 151.212 15.3026C154.888 13.8568 158.078 13.838 160.781 15.2464C163.512 16.5899 165.655 19.2391 167.211 23.1942L168.007 25.2183L160.748 28.0733L159.76 25.5607C159.101 23.8856 158.3 22.8039 157.356 22.3156C156.393 21.7809 155.284 21.7605 154.027 22.2547C151.468 23.2612 150.802 25.3233 152.028 28.4408C152.723 30.209 153.838 31.6778 155.373 32.8472C156.954 33.9984 159.431 35.1733 162.804 36.3719C167.112 37.901 170.32 39.5675 172.426 41.3717C174.533 43.1758 176.19 45.6134 177.398 48.6844C178.972 52.686 179.18 56.1504 178.021 59.0778C176.908 61.9868 174.468 64.1826 170.699 65.665Z" fill="white"/>
<path d="M213.906 35.8813C211.524 36.1699 209.389 35.5974 207.503 34.1638C205.661 32.6745 204.595 30.7386 204.307 28.356C204.018 25.9735 204.594 23.8639 206.033 22.0275C207.516 20.1354 209.449 19.0451 211.832 18.7564C214.214 18.4678 216.327 19.0682 218.169 20.5574C220.055 21.991 221.143 23.8991 221.431 26.2817C221.72 28.6643 221.123 30.8016 219.639 32.6937C218.2 34.5301 216.289 35.5927 213.906 35.8813Z" fill="white"/>
<path d="M259.672 0.157043L271.709 1.80758C275.771 2.36456 278.668 3.87209 280.4 6.33018C282.132 8.78827 282.71 12.1226 282.132 16.3332L281.429 21.4602C280.852 25.6709 279.398 28.7267 277.069 30.6278C274.739 32.529 271.543 33.201 267.481 32.6441L263.617 32.1142L260.713 53.2911L252.54 52.1704L259.672 0.157043ZM268.5 25.2136C269.837 25.397 270.879 25.1613 271.625 24.5065C272.42 23.8586 272.94 22.643 273.185 20.8596L274.03 14.6924C274.275 12.909 274.101 11.5983 273.51 10.7602C272.968 9.92882 272.028 9.42145 270.69 9.23806L266.826 8.70826L264.636 24.6838L268.5 25.2136Z" fill="white"/>
<path d="M307.768 9.67374L318.377 13.1859L309.993 65.7128L302.161 63.1199L304.014 52.7517L303.967 52.8941L295.067 49.9477L290.414 59.2306L283.151 56.8263L307.768 9.67374ZM305.28 45.8237L309.947 20.0337L309.805 19.9865L298.232 43.4902L305.28 45.8237Z" fill="white"/>
<path d="M343.761 23.5893L354.44 29.5401C358.152 31.6088 360.373 33.9914 361.103 36.6876C361.857 39.3402 361.237 42.4572 359.241 46.0387L357.671 48.8559C355.018 53.6166 351.766 55.7541 347.916 55.2684L347.843 55.3994C349.298 56.897 349.925 58.6486 349.723 60.654C349.565 62.6838 348.731 65.0527 347.222 67.7606L342.732 75.819C342.002 77.1293 341.449 78.2237 341.074 79.1022C340.723 79.9371 340.504 80.8449 340.415 81.8258L333.077 77.737C333.229 76.8484 333.444 76.0523 333.721 75.3484C333.999 74.6446 334.613 73.441 335.562 71.7376L340.235 63.3517C341.403 61.2552 341.869 59.5974 341.633 58.3781C341.44 57.1832 340.514 56.1233 338.854 55.1984L336.364 53.8111L325.412 73.4656L318.205 69.4498L343.761 23.5893ZM342.636 48.7199C344.077 49.5231 345.354 49.7482 346.467 49.3951C347.623 49.0663 348.688 48.0284 349.661 46.2813L351.633 42.7435C352.558 41.0838 352.921 39.7124 352.723 38.6291C352.569 37.5702 351.859 36.6879 350.592 35.9821L347.317 34.1567L340.015 47.2596L342.636 48.7199Z" fill="white"/>
<path d="M380.298 46.1405L386.84 51.1669L354.853 92.7976L348.311 87.7711L380.298 46.1405Z" fill="white"/>
<path d="M370.451 107.941C367.647 105.088 366.329 102.142 366.497 99.1031C366.7 96.0288 368.317 93.0021 371.348 90.0229L373.488 87.92L378.956 93.4828L376.388 96.0063C373.963 98.3896 373.75 100.598 375.748 102.63C376.729 103.629 377.75 104.097 378.812 104.035C379.943 103.975 381.169 103.296 382.489 101.999C384.058 100.457 385.08 98.7507 385.556 96.8809C386.067 94.9761 386.214 92.2372 385.998 88.6643C385.754 84.1365 386.015 80.5501 386.78 77.9049C387.581 75.2247 389.069 72.8157 391.244 70.6777C394.204 67.7686 397.222 66.2743 400.299 66.1948C403.411 66.0802 406.369 67.4493 409.173 70.302C411.942 73.1191 413.208 76.0469 412.969 79.0855C412.802 82.1247 411.202 85.1339 408.171 88.1131L406.62 89.6377L401.152 84.0749L403.078 82.1823C404.362 80.9205 405.043 79.7596 405.123 78.6996C405.239 77.6046 404.823 76.5756 403.877 75.6128C401.949 73.6516 399.791 73.8451 397.402 76.1934C396.047 77.5253 395.131 79.1261 394.656 80.9959C394.215 82.9013 394.103 85.6405 394.32 89.2134C394.598 93.7768 394.32 97.3808 393.484 100.025C392.648 102.67 391.053 105.149 388.7 107.462C385.633 110.476 382.526 112.023 379.378 112.102C376.266 112.216 373.29 110.829 370.451 107.941Z" fill="white"/>
<path d="M441.727 111.591L445.347 118.668L411.097 140.314L411.165 140.448L448.865 125.546L452.963 133.559L418.815 155.405L418.883 155.539L456.481 140.436L459.725 146.78L410.559 165.946L405.881 156.798L435.69 137.339L435.621 137.206L402.397 149.987L397.411 140.238L441.727 111.591Z" fill="white"/>
<path d="M465.174 163.782L467.59 171.67L417.392 187.045L414.976 179.157L465.174 163.782Z" fill="white"/>
<path d="M465.825 196.993L464.465 188.475L471.871 187.293L475.892 212.474L468.485 213.657L467.126 205.139L422.688 212.234L421.388 204.087L465.825 196.993Z" fill="white"/>
<path d="M477.166 230.864L476.959 239.111L455.591 238.574L455.369 247.421L476.737 247.958L476.53 256.206L424.046 254.887L424.253 246.64L447.871 247.233L448.093 238.386L424.476 237.793L424.683 229.545L477.166 230.864Z" fill="white"/>
<path d="M469.35 298.199L466.931 306.086L423.91 292.889L419.928 305.867L412.758 303.668L419.159 282.802L469.35 298.199Z" fill="white"/>
<path d="M403.559 321.694C405.405 318.089 407.842 315.854 410.869 314.988C413.896 314.123 417.279 314.647 421.017 316.561L445.584 329.14C449.322 331.055 451.725 333.493 452.793 336.455C453.86 339.417 453.471 342.7 451.625 346.305C449.779 349.91 447.342 352.145 444.315 353.011C441.288 353.876 437.905 353.352 434.167 351.437L409.6 338.858C405.862 336.944 403.459 334.506 402.392 331.544C401.324 328.582 401.713 325.299 403.559 321.694ZM410.235 325.112C408.936 327.649 409.822 329.703 412.893 331.276L438.394 344.333C441.465 345.906 443.65 345.424 444.949 342.887C446.248 340.35 445.362 338.295 442.291 336.723L416.79 323.665C413.719 322.093 411.534 322.575 410.235 325.112Z" fill="white"/>
<path d="M385.06 350.928C387.472 347.799 390.21 346.09 393.274 345.8C396.307 345.55 399.448 346.677 402.695 349.18L425.03 366.395C428.278 368.898 430.167 371.648 430.697 374.646C431.197 377.683 430.242 380.765 427.83 383.894C425.419 387.022 422.696 388.712 419.663 388.962C416.599 389.251 413.443 388.145 410.196 385.642L405.8 382.254L410.562 376.076L415.373 379.784C417.947 381.768 420.074 381.671 421.753 379.493C423.431 377.315 422.984 375.234 420.41 373.25L397.183 355.348C394.649 353.394 392.542 353.507 390.863 355.685C389.185 357.863 389.612 359.928 392.147 361.882L398.503 366.781L393.741 372.959L387.86 368.426C384.613 365.923 382.739 363.153 382.239 360.116C381.709 357.119 382.649 354.056 385.06 350.928Z" fill="white"/>
<path d="M402.161 411.228L393.839 418.686L352.434 385.294L358.578 379.788L366.653 386.551L366.553 386.439L373.534 380.182L367.794 371.529L373.491 366.424L402.161 411.228ZM372.034 391.095L392.089 407.967L392.201 407.867L377.563 386.139L372.034 391.095Z" fill="white"/>
<path d="M372.646 435.086L365.635 439.434L341.918 401.191L330.381 408.346L326.428 401.972L344.976 390.469L372.646 435.086Z" fill="white"/>
<path d="M308.711 409.061C312.415 407.55 315.641 407.449 318.389 408.758C321.156 410.113 323.342 412.758 324.948 416.693L326.081 419.471L318.859 422.417L317.499 419.084C316.215 415.936 314.253 414.9 311.614 415.977C310.318 416.506 309.497 417.273 309.151 418.278C308.778 419.349 308.941 420.74 309.639 422.453C310.471 424.49 311.661 426.084 313.21 427.233C314.778 428.43 317.256 429.606 320.644 430.762C324.925 432.255 328.144 433.857 330.301 435.57C332.476 437.328 334.14 439.619 335.292 442.443C336.86 446.286 337.097 449.645 336.003 452.522C334.927 455.445 332.538 457.662 328.834 459.173C325.177 460.665 321.988 460.724 319.267 459.35C316.519 458.041 314.342 455.42 312.736 451.484L311.915 449.471L319.137 446.524L320.157 449.024C320.837 450.691 321.652 451.762 322.602 452.238C323.572 452.761 324.681 452.767 325.931 452.257C328.477 451.218 329.118 449.148 327.852 446.046C327.134 444.287 326.001 442.832 324.452 441.682C322.856 440.551 320.364 439.408 316.977 438.252C312.649 436.778 309.421 435.152 307.291 433.375C305.162 431.597 303.474 429.181 302.227 426.125C300.603 422.144 300.352 418.682 301.473 415.741C302.549 412.818 304.962 410.591 308.711 409.061Z" fill="white"/>
<path d="M265.882 439.39C268.261 439.071 270.402 439.616 272.306 441.026C274.168 442.492 275.258 444.414 275.576 446.793C275.895 449.172 275.346 451.288 273.93 453.143C272.471 455.053 270.552 456.168 268.173 456.487C265.795 456.806 263.675 456.232 261.813 454.766C259.909 453.357 258.798 451.463 258.479 449.084C258.16 446.705 258.731 444.56 260.19 442.65C261.606 440.795 263.503 439.708 265.882 439.39Z" fill="white"/>
</svg>
