<svg width="478" height="476" viewBox="0 0 478 476" fill="none" xmlns="http://www.w3.org/2000/svg">
<path d="M215.162 475.157L203.146 473.355C199.092 472.746 196.214 471.202 194.513 468.722C192.812 466.242 192.277 462.901 192.908 458.698L193.675 453.58C194.306 449.377 195.798 446.34 198.152 444.469C200.506 442.597 203.71 441.966 207.764 442.574L211.621 443.153L214.793 422.014L222.952 423.239L215.162 475.157ZM206.652 449.991C205.317 449.791 204.272 450.013 203.518 450.659C202.714 451.296 202.179 452.505 201.912 454.285L200.988 460.441C200.721 462.222 200.878 463.534 201.459 464.38C201.991 465.218 202.924 465.737 204.259 465.938L208.116 466.516L210.508 450.57L206.652 449.991Z" fill="black"/>
<path d="M167.189 465.032L156.626 461.386L165.674 408.97L173.472 411.662L171.489 422.005L171.538 421.864L180.4 424.923L185.17 415.699L192.401 418.195L167.189 465.032ZM170.134 428.917L165.141 454.646L165.283 454.695L177.153 431.339L170.134 428.917Z" fill="black"/>
<path d="M131.375 450.662L120.773 444.577C117.087 442.461 114.896 440.051 114.2 437.345C113.48 434.684 114.14 431.575 116.181 428.019L117.786 425.222C120.499 420.495 123.778 418.399 127.622 418.933L127.696 418.803C126.26 417.287 125.656 415.528 125.883 413.525C126.067 411.497 126.93 409.139 128.473 406.451L133.065 398.45C133.812 397.149 134.378 396.062 134.765 395.188C135.126 394.357 135.357 393.452 135.458 392.473L142.744 396.654C142.581 397.541 142.356 398.334 142.069 399.034C141.783 399.735 141.154 400.93 140.183 402.622L135.404 410.948C134.21 413.029 133.723 414.681 133.944 415.903C134.121 417.101 135.034 418.172 136.682 419.118L139.154 420.537L150.354 401.022L157.509 405.129L131.375 450.662ZM132.818 425.548C131.387 424.727 130.113 424.485 128.996 424.824C127.836 425.138 126.758 426.163 125.763 427.897L123.747 431.41C122.801 433.058 122.42 434.425 122.604 435.51C122.745 436.571 123.444 437.462 124.701 438.184L127.954 440.051L135.42 427.041L132.818 425.548Z" fill="black"/>
<path d="M95.1278 427.65L88.65 422.541L121.161 381.319L127.639 386.428L95.1278 427.65Z" fill="black"/>
<path d="M105.756 365.979C108.523 368.867 109.804 371.83 109.598 374.867C109.356 377.938 107.7 380.944 104.632 383.885L102.466 385.96L97.069 380.329L99.6682 377.838C102.123 375.486 102.364 373.28 100.393 371.223C99.4239 370.212 98.4087 369.731 97.3467 369.779C96.2141 369.825 94.9799 370.489 93.6442 371.769C92.0559 373.291 91.0119 374.984 90.5125 376.847C89.977 378.746 89.795 381.482 89.9664 385.058C90.1529 389.588 89.8467 393.171 89.048 395.806C88.2131 398.476 86.6947 400.866 84.4926 402.976C81.4963 405.848 78.4594 407.304 75.3819 407.344C72.2683 407.419 69.3278 406.013 66.5602 403.125C63.8272 400.273 62.5991 397.33 62.8759 394.294C63.082 391.257 64.7193 388.269 67.7878 385.328L69.3582 383.823L74.755 389.455L72.8056 391.323C71.506 392.568 70.8095 393.72 70.7163 394.779C70.5869 395.873 70.9892 396.907 71.9233 397.882C73.826 399.867 75.9867 399.701 78.4054 397.383C79.7772 396.069 80.7128 394.479 81.2122 392.616C81.677 390.716 81.8237 387.979 81.6523 384.403C81.4312 379.837 81.7554 376.236 82.6249 373.603C83.4943 370.969 85.1203 368.511 87.5029 366.227C90.6075 363.252 93.7339 361.745 96.8821 361.706C99.9956 361.631 102.954 363.055 105.756 365.979Z" fill="black"/>
<path d="M34.5333 361.428L31.003 354.305L65.5246 333.094L65.4579 332.96L27.5726 347.383L23.5761 339.319L57.9977 317.907L57.9311 317.772L20.1457 332.397L16.9818 326.013L66.3862 307.471L70.949 316.678L40.8959 335.758L40.9625 335.892L74.346 323.532L79.2085 333.343L34.5333 361.428Z" fill="black"/>
<path d="M11.7483 308.944L9.43227 301.026L59.8212 286.288L62.1371 294.206L11.7483 308.944Z" fill="black"/>
<path d="M11.5169 275.727L12.7688 284.261L5.3482 285.35L1.64697 260.12L9.06755 259.031L10.3194 267.565L54.8429 261.033L56.0404 269.196L11.5169 275.727Z" fill="black"/>
<path d="M0.605469 241.716L0.917059 233.471L22.2768 234.279L22.6111 225.435L1.25131 224.628L1.5629 216.384L54.0254 218.366L53.7139 226.611L30.1057 225.718L29.7715 234.562L53.3796 235.454L53.068 243.698L0.605469 241.716Z" fill="black"/>
<path d="M9.27327 174.484L11.7925 166.628L54.6432 180.369L58.7884 167.443L65.9302 169.733L59.2658 190.515L9.27327 174.484Z" fill="black"/>
<path d="M75.3568 151.824C73.4654 155.406 71.0008 157.61 67.963 158.437C64.9252 159.264 61.5493 158.697 57.8354 156.735L33.4298 143.846C29.716 141.885 27.3441 139.417 26.3144 136.441C25.2846 133.466 25.7154 130.188 27.6068 126.607C29.4981 123.025 31.9627 120.821 35.0005 119.994C38.0383 119.167 41.4142 119.734 45.1281 121.696L69.5337 134.585C73.2476 136.546 75.6194 139.014 76.6491 141.99C77.6789 144.965 77.2481 148.243 75.3568 151.824ZM68.7248 148.322C70.0558 145.802 69.1959 143.736 66.1452 142.125L40.8111 128.746C37.7605 127.134 35.5696 127.589 34.2387 130.109C32.9078 132.629 33.7676 134.695 36.8183 136.306L62.1524 149.686C65.2031 151.297 67.3939 150.842 68.7248 148.322Z" fill="black"/>
<path d="M94.2231 122.827C91.7723 125.925 89.0131 127.599 85.9456 127.85C82.9091 128.062 79.7832 126.896 76.5678 124.352L54.4523 106.855C51.2369 104.311 49.3829 101.537 48.8903 98.5333C48.4288 95.4904 49.4234 92.42 51.8742 89.3223C54.325 86.2245 57.0687 84.5698 60.1052 84.3582C63.1727 84.1073 66.3141 85.2538 69.5295 87.7977L73.882 91.2413L69.0424 97.3583L64.2782 93.589C61.7294 91.5725 59.6019 91.6426 57.8956 93.7993C56.1893 95.9559 56.6106 98.0425 59.1594 100.059L82.1572 118.254C84.6667 120.239 86.7746 120.154 88.4809 117.997C90.1872 115.841 89.7855 113.769 87.2759 111.784L80.9824 106.805L85.822 100.688L91.645 105.295C94.8604 107.839 96.6988 110.632 97.1604 113.675C97.653 116.679 96.6739 119.729 94.2231 122.827Z" fill="black"/>
<path d="M77.8889 62.3157L86.3049 54.9637L127.284 88.8766L121.071 94.3043L113.082 87.44L113.181 87.553L106.121 93.7208L111.751 102.446L105.99 107.479L77.8889 62.3157ZM107.759 82.8286L87.919 65.7033L87.806 65.802L102.167 87.7135L107.759 82.8286Z" fill="black"/>
<path d="M107.704 38.8328L114.77 34.5738L138 73.1139L149.627 66.1059L153.498 72.5293L134.807 83.7962L107.704 38.8328Z" fill="black"/>
<path d="M171.304 65.665C167.582 67.1291 164.355 67.1894 161.623 65.8459C158.874 64.4559 156.721 61.7833 155.166 57.8283L154.068 55.0365L161.326 52.1814L162.644 55.5316C163.888 58.6957 165.837 59.7561 168.489 58.7129C169.792 58.2005 170.623 57.4439 170.981 56.4432C171.368 55.3777 171.223 53.9841 170.546 52.2625C169.74 50.2151 168.571 48.6068 167.036 47.4373C165.483 46.2213 163.02 45.014 159.648 43.8153C155.385 42.268 152.187 40.6247 150.052 38.8854C147.899 37.0995 146.264 34.7875 145.148 31.9491C143.629 28.0871 143.435 24.7249 144.565 21.8623C145.678 18.9533 148.095 16.7667 151.818 15.3026C155.494 13.8568 158.683 13.838 161.386 15.2464C164.117 16.5899 166.261 19.2391 167.817 23.1942L168.613 25.2183L161.354 28.0733L160.366 25.5607C159.707 23.8856 158.905 22.8039 157.961 22.3156C156.998 21.7809 155.889 21.7605 154.633 22.2547C152.074 23.2612 151.407 25.3233 152.633 28.4408C153.329 30.209 154.444 31.6778 155.978 32.8472C157.559 33.9984 160.036 35.1733 163.409 36.3719C167.718 37.901 170.925 39.5675 173.032 41.3717C175.138 43.1758 176.796 45.6134 178.004 48.6844C179.578 52.686 179.785 56.1504 178.626 59.0778C177.514 61.9868 175.073 64.1826 171.304 65.665Z" fill="black"/>
<path d="M214.512 35.8813C212.129 36.1699 209.995 35.5974 208.109 34.1638C206.266 32.6745 205.201 30.7386 204.912 28.356C204.623 25.9735 205.199 23.8639 206.639 22.0275C208.122 20.1354 210.055 19.0451 212.437 18.7564C214.82 18.4678 216.932 19.0682 218.775 20.5574C220.661 21.991 221.748 23.8991 222.037 26.2817C222.326 28.6643 221.728 30.8016 220.245 32.6937C218.805 34.5301 216.894 35.5927 214.512 35.8813Z" fill="black"/>
<path d="M260.277 0.157043L272.315 1.80758C276.377 2.36456 279.274 3.87209 281.006 6.33018C282.738 8.78827 283.315 12.1226 282.738 16.3332L282.035 21.4602C281.458 25.6709 280.004 28.7267 277.674 30.6278C275.344 32.529 272.148 33.201 268.086 32.6441L264.222 32.1142L261.319 53.2911L253.145 52.1704L260.277 0.157043ZM269.105 25.2136C270.443 25.397 271.484 25.1613 272.23 24.5065C273.026 23.8586 273.546 22.643 273.79 20.8596L274.636 14.6924C274.88 12.909 274.707 11.5983 274.115 10.7602C273.573 9.92882 272.633 9.42145 271.296 9.23806L267.432 8.70826L265.241 24.6838L269.105 25.2136Z" fill="black"/>
<path d="M308.374 9.67374L318.982 13.1859L310.599 65.7128L302.767 63.1199L304.619 52.7517L304.572 52.8941L295.672 49.9477L291.019 59.2306L283.757 56.8263L308.374 9.67374ZM305.886 45.8237L310.553 20.0337L310.411 19.9865L298.837 43.4902L305.886 45.8237Z" fill="black"/>
<path d="M344.366 23.5893L355.045 29.5401C358.758 31.6088 360.979 33.9914 361.709 36.6876C362.463 39.3402 361.842 42.4572 359.846 46.0387L358.277 48.8559C355.624 53.6166 352.372 55.7541 348.521 55.2684L348.448 55.3994C349.903 56.897 350.53 58.6486 350.328 60.654C350.17 62.6838 349.337 65.0527 347.828 67.7606L343.337 75.819C342.607 77.1293 342.055 78.2237 341.68 79.1022C341.329 79.9371 341.109 80.8449 341.02 81.8258L333.683 77.737C333.834 76.8484 334.049 76.0523 334.327 75.3484C334.605 74.6446 335.218 73.441 336.167 71.7376L340.84 63.3517C342.008 61.2552 342.474 59.5974 342.238 58.3781C342.045 57.1832 341.119 56.1233 339.459 55.1984L336.97 53.8111L326.018 73.4656L318.811 69.4498L344.366 23.5893ZM343.241 48.7199C344.683 49.5231 345.959 49.7482 347.072 49.3951C348.228 49.0663 349.293 48.0284 350.267 46.2813L352.238 42.7435C353.163 41.0838 353.527 39.7124 353.329 38.6291C353.175 37.5702 352.464 36.6879 351.198 35.9821L347.922 34.1567L340.621 47.2596L343.241 48.7199Z" fill="black"/>
<path d="M380.903 46.1405L387.445 51.1669L355.459 92.7976L348.917 87.7711L380.903 46.1405Z" fill="black"/>
<path d="M371.057 107.941C368.253 105.088 366.935 102.142 367.102 99.1031C367.306 96.0288 368.923 93.0021 371.954 90.0229L374.093 87.92L379.561 93.4828L376.994 96.0063C374.569 98.3896 374.355 100.598 376.353 102.63C377.334 103.629 378.356 104.097 379.417 104.035C380.549 103.975 381.775 103.296 383.094 101.999C384.663 100.457 385.685 98.7507 386.161 96.8809C386.673 94.9761 386.82 92.2372 386.603 88.6643C386.359 84.1365 386.62 80.5501 387.386 77.9049C388.187 75.2247 389.675 72.8157 391.85 70.6777C394.809 67.7686 397.828 66.2743 400.904 66.1948C404.017 66.0802 406.975 67.4493 409.779 70.302C412.548 73.1191 413.813 76.0469 413.575 79.0855C413.407 82.1247 411.808 85.1339 408.777 88.1131L407.225 89.6377L401.758 84.0749L403.683 82.1823C404.967 80.9205 405.649 79.7596 405.729 78.6996C405.844 77.6046 405.429 76.5756 404.483 75.6128C402.555 73.6516 400.396 73.8451 398.007 76.1934C396.652 77.5253 395.737 79.1261 395.261 80.9959C394.82 82.9013 394.708 85.6405 394.925 89.2134C395.204 93.7768 394.925 97.3808 394.089 100.025C393.253 102.67 391.658 105.149 389.305 107.462C386.238 110.476 383.131 112.023 379.984 112.102C376.871 112.216 373.896 110.829 371.057 107.941Z" fill="black"/>
<path d="M442.332 111.591L445.952 118.668L411.702 140.314L411.77 140.448L449.47 125.546L453.568 133.559L419.421 155.405L419.489 155.539L457.086 140.436L460.331 146.78L411.165 165.946L406.486 156.798L436.295 137.339L436.227 137.206L403.002 149.987L398.016 140.238L442.332 111.591Z" fill="black"/>
<path d="M465.78 163.782L468.196 171.67L417.998 187.045L415.581 179.157L465.78 163.782Z" fill="black"/>
<path d="M466.43 196.993L465.071 188.475L472.477 187.293L476.497 212.474L469.091 213.657L467.731 205.139L423.294 212.234L421.993 204.087L466.43 196.993Z" fill="black"/>
<path d="M477.772 230.864L477.565 239.111L456.196 238.574L455.974 247.421L477.342 247.958L477.135 256.206L424.652 254.887L424.859 246.64L448.476 247.233L448.699 238.386L425.081 237.793L425.288 229.545L477.772 230.864Z" fill="black"/>
<path d="M469.956 298.199L467.536 306.086L424.515 292.889L420.534 305.867L413.364 303.668L419.764 282.802L469.956 298.199Z" fill="black"/>
<path d="M404.165 321.694C406.011 318.089 408.447 315.854 411.474 314.988C414.501 314.123 417.884 314.647 421.623 316.561L446.189 329.14C449.928 331.055 452.331 333.493 453.398 336.455C454.465 339.417 454.076 342.7 452.23 346.305C450.384 349.91 447.948 352.145 444.921 353.011C441.894 353.876 438.511 353.352 434.773 351.437L410.206 338.858C406.467 336.944 404.064 334.506 402.997 331.544C401.93 328.582 402.319 325.299 404.165 321.694ZM410.841 325.112C409.542 327.649 410.428 329.703 413.498 331.276L439 344.333C442.071 345.906 444.256 345.424 445.555 342.887C446.853 340.35 445.967 338.295 442.897 336.723L417.395 323.665C414.324 322.093 412.139 322.575 410.841 325.112Z" fill="black"/>
<path d="M385.666 350.928C388.077 347.799 390.815 346.09 393.879 345.8C396.913 345.55 400.053 346.677 403.301 349.18L425.636 366.395C428.883 368.898 430.772 371.648 431.303 374.646C431.803 377.683 430.847 380.765 428.436 383.894C426.024 387.022 423.302 388.712 420.268 388.962C417.204 389.251 414.048 388.145 410.801 385.642L406.405 382.254L411.167 376.076L415.979 379.784C418.553 381.768 420.679 381.671 422.358 379.493C424.037 377.315 423.589 375.234 421.015 373.25L397.789 355.348C395.254 353.394 393.148 353.507 391.469 355.685C389.79 357.863 390.218 359.928 392.752 361.882L399.108 366.781L394.347 372.959L388.466 368.426C385.219 365.923 383.345 363.153 382.845 360.116C382.314 357.119 383.255 354.056 385.666 350.928Z" fill="black"/>
<path d="M402.767 411.228L394.445 418.686L353.04 385.294L359.184 379.788L367.258 386.551L367.158 386.439L374.14 380.182L368.399 371.529L374.096 366.424L402.767 411.228ZM372.639 391.095L392.695 407.967L392.806 407.867L378.169 386.139L372.639 391.095Z" fill="black"/>
<path d="M373.251 435.086L366.24 439.434L342.523 401.191L330.987 408.346L327.034 401.972L345.582 390.469L373.251 435.086Z" fill="black"/>
<path d="M309.317 409.061C313.021 407.55 316.246 407.449 318.994 408.758C321.761 410.113 323.948 412.758 325.553 416.693L326.687 419.471L319.465 422.417L318.105 419.084C316.82 415.936 314.859 414.9 312.22 415.977C310.923 416.506 310.102 417.273 309.757 418.278C309.383 419.349 309.546 420.74 310.245 422.453C311.076 424.49 312.266 426.084 313.815 427.233C315.384 428.43 317.861 429.606 321.249 430.762C325.531 432.255 328.75 433.857 330.906 435.57C333.082 437.328 334.746 439.619 335.898 442.443C337.466 446.286 337.702 449.645 336.608 452.522C335.533 455.445 333.143 457.662 329.439 459.173C325.782 460.665 322.593 460.724 319.872 459.35C317.124 458.041 314.948 455.42 313.342 451.484L312.52 449.471L319.742 446.524L320.762 449.024C321.442 450.691 322.257 451.762 323.208 452.238C324.177 452.761 325.287 452.767 326.537 452.257C329.083 451.218 329.723 449.148 328.458 446.046C327.74 444.287 326.606 442.832 325.057 441.682C323.461 440.551 320.97 439.408 317.582 438.252C313.255 436.778 310.026 435.152 307.897 433.375C305.768 431.597 304.08 429.181 302.833 426.125C301.208 422.144 300.957 418.682 302.079 415.741C303.154 412.818 305.567 410.591 309.317 409.061Z" fill="black"/>
<path d="M266.488 439.39C268.866 439.071 271.008 439.616 272.912 441.026C274.773 442.492 275.863 444.414 276.182 446.793C276.501 449.172 275.952 451.288 274.536 453.143C273.076 455.053 271.157 456.168 268.779 456.487C266.4 456.806 264.28 456.232 262.419 454.766C260.515 453.357 259.403 451.463 259.085 449.084C258.766 446.705 259.336 444.56 260.795 442.65C262.211 440.795 264.109 439.708 266.488 439.39Z" fill="black"/>
</svg>
