<svg width="258" height="173" viewBox="0 0 258 173" fill="none" xmlns="http://www.w3.org/2000/svg">
<path d="M36.625 53.75C37.75 56.5 36.375 58.375 35.5 60.25C32.375 67.125 28.875 73.875 25.875 80.875C22.5 88.75 19.25 96.625 16.25 104.625C15.125 107.875 14.5 111.5 14.125 114.875C13.625 118.75 13.875 122.75 17.375 125.75C20.625 125.125 23.25 123.375 25.5 121.375C31.125 116.5 36.625 111.625 41.875 106.375C52.5 95.5 62.125 83.75 70.25 70.75C80.625 54 86.25 35.875 85.875 16C85.875 14.25 85.875 12.5 85.625 10.75C85.125 5.12497 84.375 3.99998 79.625 1.62497C84.75 -0.375031 87.625 0.49998 89.625 4.99997C90.625 7.37497 91.375 10.125 91.75 12.75C93.625 25.5 92 38 88.75 50.375C84.75 65 78.125 78.375 69.125 90.5C60.25 102.375 50.375 113.5 39.25 123.25C33.625 128.25 27.25 132.125 19.5 132.375C15.875 132.5 12.125 131.875 8.62504 130.875C3.37504 129.5 0.750036 125.5 0.250036 120.125C-0.374964 115 0.250036 110 2.25004 105.25C5.25004 97.875 8.25004 90.5 12 83.375C16.25 75.375 21.25 67.625 26 59.875C26.875 58.375 28 57 29.125 55.625C31.125 53.25 33.5 52.5 36.625 53.75Z" fill="white"/>
<path d="M114.606 40L111.231 44.625C108.981 47.75 106.731 50.75 104.356 53.875C104.106 54.375 103.856 55 103.356 55.25C102.481 55.75 101.231 56.625 100.356 56.25C99.7305 56 99.2305 54.5 98.9805 53.5C98.8555 52.875 99.2305 52 99.6055 51.375C101.606 48 103.481 44.625 105.731 41.625C107.731 39.125 110.356 38.25 114.606 40ZM91.3555 109.25C95.2305 107.25 97.9805 105.125 100.606 102.75C112.356 92.375 114.856 92.875 126.606 82.375C128.856 80.375 130.981 78.5 133.23 76.625C134.105 75.875 135.106 75.625 137.106 74.625C136.481 76.625 136.356 77.75 135.731 78.5C133.731 81.125 131.356 83.5 129.231 85.875C123.106 92.75 128.106 87.5 121.856 94.25C117.231 99.25 110.856 105.375 105.856 110C103.231 112.375 99.8555 114.25 96.6055 116C93.2305 117.875 89.4805 117.75 85.8555 117.25C81.1055 116.5 78.6055 113.75 78.7305 108.75C78.8555 105.75 79.3555 102.625 79.9805 99.625C81.8555 90.875 85.8555 83.125 90.7305 75.75C91.8555 74.25 93.2305 72.75 94.8555 71.75C96.2305 70.625 98.1055 70.375 99.7305 71.625C101.481 72.75 100.606 74.375 100.106 75.875C98.4805 80.375 96.4805 84.875 95.1055 89.5C93.6055 94.875 92.4805 100.5 91.1055 106C90.9805 106.625 91.2305 107.5 91.3555 109.25Z" fill="white"/>
<path d="M179.686 72.75C179.186 76 177.311 77.5 175.561 78.875C170.811 82.875 166.061 86.875 161.186 90.75C154.561 96.125 147.811 101.5 140.936 106.625C137.936 109 136.561 111.5 136.811 115.5C137.561 128 135.061 139.875 130.061 151.25C127.936 156 125.561 160.375 122.186 164.25C118.686 168.125 114.686 171 109.436 172C108.186 172.25 106.811 172.5 105.436 172.5C99.3106 172.5 96.1856 169.375 95.6856 163.25C95.3106 158 96.1856 152.75 97.6856 147.75C99.8106 141.125 103.311 135.25 107.561 130C111.061 125.5 114.686 121.125 118.811 117.375C122.061 114.375 123.186 111.25 122.936 107.125C122.561 102.5 122.686 97.75 122.936 93.125C123.186 83.5 126.811 75.375 133.811 68.75C135.561 67 137.811 65.625 139.936 64.5C141.686 63.5 143.686 63.125 145.936 64.625C140.686 71 136.186 77.625 135.311 86.125C134.811 91.375 135.436 96.5 136.311 102.125C139.936 100.75 142.561 98.5 145.436 96.625C148.311 94.75 151.186 92.75 154.061 90.75L162.311 85.125C165.186 83 167.936 80.875 170.811 78.875C173.561 77 175.686 74 179.686 72.75ZM121.936 125.875C115.811 131.375 111.311 138.125 108.061 145.625C105.936 150.625 104.311 155.75 104.061 161.375C104.061 163.375 103.811 165.625 105.436 167.625C109.436 166.625 111.311 163.75 112.811 160.625C118.186 149.75 121.436 138.25 121.936 125.875Z" fill="white"/>
<path d="M193.341 40L189.966 44.625C187.716 47.75 185.466 50.75 183.091 53.875C182.841 54.375 182.591 55 182.091 55.25C181.216 55.75 179.966 56.625 179.091 56.25C178.466 56 177.966 54.5 177.716 53.5C177.591 52.875 177.966 52 178.341 51.375C180.341 48 182.216 44.625 184.466 41.625C186.466 39.125 189.091 38.25 193.341 40ZM170.091 109.25C173.966 107.25 176.716 105.125 179.341 102.75C191.091 92.375 193.591 92.875 205.341 82.375C207.591 80.375 209.716 78.5 211.966 76.625C212.841 75.875 213.841 75.625 215.841 74.625C215.216 76.625 215.091 77.75 214.466 78.5C212.466 81.125 210.091 83.5 207.966 85.875C201.841 92.75 206.841 87.5 200.591 94.25C195.966 99.25 189.591 105.375 184.591 110C181.966 112.375 178.591 114.25 175.341 116C171.966 117.875 168.216 117.75 164.591 117.25C159.841 116.5 157.341 113.75 157.466 108.75C157.591 105.75 158.091 102.625 158.716 99.625C160.591 90.875 164.591 83.125 169.466 75.75C170.591 74.25 171.966 72.75 173.591 71.75C174.966 70.625 176.841 70.375 178.466 71.625C180.216 72.75 179.341 74.375 178.841 75.875C177.216 80.375 175.216 84.875 173.841 89.5C172.341 94.875 171.216 100.5 169.841 106C169.716 106.625 169.966 107.5 170.091 109.25Z" fill="white"/>
<path d="M211.921 110.75C213.421 110 214.921 109.625 216.046 108.75C219.671 105.875 223.421 103 226.796 99.75C235.046 91.875 243.171 83.625 251.296 75.625C252.421 74.5 253.671 73.5 254.921 72.625C255.296 72.375 256.421 72.875 256.921 73.25C257.296 73.5 257.421 74.5 257.171 74.875C256.546 76 255.671 77.125 254.796 78.25C246.421 88.125 238.046 98.125 229.421 107.875C226.796 110.75 223.671 113.125 220.421 115.375C216.546 118 212.046 118.5 207.546 117.875C203.046 117.25 200.671 114.875 199.921 110.375C199.171 105.875 199.796 101.375 201.046 97.125C204.046 86.75 208.671 77.125 213.546 67.625L216.171 62.125C210.421 61.625 205.171 66.375 200.171 62C200.546 59.125 202.671 58.625 204.421 58C208.296 56.875 212.171 55.625 216.171 55C219.796 54.5 222.046 52.75 223.796 49.625C227.296 43.75 231.046 38 234.796 32.375C236.046 30.375 237.546 28.625 239.171 26.875C241.046 24.875 241.671 25 245.546 25.875C246.171 28.125 244.671 29.875 243.796 31.75C241.296 36.5 238.546 41.375 236.046 46.125C235.296 47.5 234.671 48.875 234.046 50.375C236.546 51.875 240.171 49.5 242.046 52.875C240.546 55.375 238.046 55.625 235.921 56C231.671 56.625 229.046 58.75 227.171 62.75C223.046 71.875 218.546 81 214.296 90.125C212.171 94.75 210.796 99.625 210.671 104.875C210.671 106.75 210.546 108.625 211.921 110.75Z" fill="white"/>
</svg>
